<?xml version="1.0" encoding="utf-8"?>
<svg xmlns="http://www.w3.org/2000/svg" xmlns:xlink="http://www.w3.org/1999/xlink" width="500" height="500" viewBox="0 0 2000 2000">
<defs>
  <clipPath id="clip310">
    <rect x="0" y="0" width="2000" height="2000"/>
  </clipPath>
</defs>
<path clip-path="url(#clip310)" d="
M0 2000 L2000 2000 L2000 0 L0 0  Z
  " fill="#ffffff" fill-rule="evenodd" fill-opacity="1"/>
<defs>
  <clipPath id="clip311">
    <rect x="400" y="200" width="1401" height="1401"/>
  </clipPath>
</defs>
<path clip-path="url(#clip310)" d="
M240.472 1759.53 L1811.02 1759.53 L1811.02 204.724 L240.472 204.724  Z
  " fill="#ffffff" fill-rule="evenodd" fill-opacity="1"/>
<defs>
  <clipPath id="clip312">
    <rect x="240" y="204" width="1572" height="1556"/>
  </clipPath>
</defs>
<polyline clip-path="url(#clip312)" style="stroke:#000000; stroke-width:2; stroke-opacity:0.1; fill:none" points="
  240.472,1759.53 240.472,204.724 
  "/>
<polyline clip-path="url(#clip312)" style="stroke:#000000; stroke-width:2; stroke-opacity:0.1; fill:none" points="
  1025.75,1759.53 1025.75,204.724 
  "/>
<polyline clip-path="url(#clip312)" style="stroke:#000000; stroke-width:2; stroke-opacity:0.1; fill:none" points="
  1811.02,1759.53 1811.02,204.724 
  "/>
<polyline clip-path="url(#clip312)" style="stroke:#000000; stroke-width:2; stroke-opacity:0.1; fill:none" points="
  240.472,1759.53 1811.02,1759.53 
  "/>
<polyline clip-path="url(#clip312)" style="stroke:#000000; stroke-width:2; stroke-opacity:0.1; fill:none" points="
  240.472,982.126 1811.02,982.126 
  "/>
<polyline clip-path="url(#clip312)" style="stroke:#000000; stroke-width:2; stroke-opacity:0.1; fill:none" points="
  240.472,204.724 1811.02,204.724 
  "/>
<polyline clip-path="url(#clip310)" style="stroke:#000000; stroke-width:4; stroke-opacity:1; fill:none" points="
  240.472,1759.53 1811.02,1759.53 
  "/>
<polyline clip-path="url(#clip310)" style="stroke:#000000; stroke-width:4; stroke-opacity:1; fill:none" points="
  240.472,1759.53 240.472,204.724 
  "/>
<polyline clip-path="url(#clip310)" style="stroke:#000000; stroke-width:4; stroke-opacity:1; fill:none" points="
  240.472,1759.53 240.472,1740.87 
  "/>
<polyline clip-path="url(#clip310)" style="stroke:#000000; stroke-width:4; stroke-opacity:1; fill:none" points="
  1025.75,1759.53 1025.75,1740.87 
  "/>
<polyline clip-path="url(#clip310)" style="stroke:#000000; stroke-width:4; stroke-opacity:1; fill:none" points="
  1811.02,1759.53 1811.02,1740.87 
  "/>
<polyline clip-path="url(#clip310)" style="stroke:#000000; stroke-width:4; stroke-opacity:1; fill:none" points="
  240.472,1759.53 259.319,1759.53 
  "/>
<polyline clip-path="url(#clip310)" style="stroke:#000000; stroke-width:4; stroke-opacity:1; fill:none" points="
  240.472,982.126 259.319,982.126 
  "/>
<polyline clip-path="url(#clip310)" style="stroke:#000000; stroke-width:4; stroke-opacity:1; fill:none" points="
  240.472,204.724 259.319,204.724 
  "/>
<path clip-path="url(#clip310)" d="M 0 0 M221.341 1796.12 L233.817 1796.12 L233.817 1799.91 L221.341 1799.91 L221.341 1796.12 Z" fill="#000000" fill-rule="evenodd" fill-opacity="1" /><path clip-path="url(#clip310)" d="M 0 0 M239.697 1807.06 L247.336 1807.06 L247.336 1780.7 L239.026 1782.37 L239.026 1778.11 L247.29 1776.44 L251.965 1776.44 L251.965 1807.06 L259.604 1807.06 L259.604 1811 L239.697 1811 L239.697 1807.06 Z" fill="#000000" fill-rule="evenodd" fill-opacity="1" /><path clip-path="url(#clip310)" d="M 0 0 M1025.75 1779.52 Q1022.14 1779.52 1020.31 1783.08 Q1018.5 1786.62 1018.5 1793.75 Q1018.5 1800.86 1020.31 1804.43 Q1022.14 1807.97 1025.75 1807.97 Q1029.38 1807.97 1031.19 1804.43 Q1033.02 1800.86 1033.02 1793.75 Q1033.02 1786.62 1031.19 1783.08 Q1029.38 1779.52 1025.75 1779.52 M1025.75 1775.81 Q1031.56 1775.81 1034.61 1780.42 Q1037.69 1785 1037.69 1793.75 Q1037.69 1802.48 1034.61 1807.09 Q1031.56 1811.67 1025.75 1811.67 Q1019.94 1811.67 1016.86 1807.09 Q1013.8 1802.48 1013.8 1793.75 Q1013.8 1785 1016.86 1780.42 Q1019.94 1775.81 1025.75 1775.81 Z" fill="#000000" fill-rule="evenodd" fill-opacity="1" /><path clip-path="url(#clip310)" d="M 0 0 M1801.41 1807.06 L1809.04 1807.06 L1809.04 1780.7 L1800.73 1782.37 L1800.73 1778.11 L1809 1776.44 L1813.67 1776.44 L1813.67 1807.06 L1821.31 1807.06 L1821.31 1811 L1801.41 1811 L1801.41 1807.06 Z" fill="#000000" fill-rule="evenodd" fill-opacity="1" /><path clip-path="url(#clip310)" d="M 0 0 M182.209 1761.92 L194.686 1761.92 L194.686 1765.72 L182.209 1765.72 L182.209 1761.92 Z" fill="#000000" fill-rule="evenodd" fill-opacity="1" /><path clip-path="url(#clip310)" d="M 0 0 M200.565 1772.87 L208.204 1772.87 L208.204 1746.51 L199.894 1748.17 L199.894 1743.91 L208.158 1742.25 L212.834 1742.25 L212.834 1772.87 L220.472 1772.87 L220.472 1776.81 L200.565 1776.81 L200.565 1772.87 Z" fill="#000000" fill-rule="evenodd" fill-opacity="1" /><path clip-path="url(#clip310)" d="M 0 0 M208.528 967.925 Q204.917 967.925 203.088 971.489 Q201.283 975.031 201.283 982.161 Q201.283 989.267 203.088 992.832 Q204.917 996.374 208.528 996.374 Q212.162 996.374 213.968 992.832 Q215.797 989.267 215.797 982.161 Q215.797 975.031 213.968 971.489 Q212.162 967.925 208.528 967.925 M208.528 964.221 Q214.338 964.221 217.394 968.827 Q220.472 973.411 220.472 982.161 Q220.472 990.888 217.394 995.494 Q214.338 1000.08 208.528 1000.08 Q202.718 1000.08 199.639 995.494 Q196.584 990.888 196.584 982.161 Q196.584 973.411 199.639 968.827 Q202.718 964.221 208.528 964.221 Z" fill="#000000" fill-rule="evenodd" fill-opacity="1" /><path clip-path="url(#clip310)" d="M 0 0 M200.565 218.069 L208.204 218.069 L208.204 191.704 L199.894 193.37 L199.894 189.111 L208.158 187.444 L212.834 187.444 L212.834 218.069 L220.472 218.069 L220.472 222.004 L200.565 222.004 L200.565 218.069 Z" fill="#000000" fill-rule="evenodd" fill-opacity="1" /><path clip-path="url(#clip310)" d="M 0 0 M910.763 12.096 L922.956 12.096 L938.39 53.2532 L953.905 12.096 L966.098 12.096 L966.098 72.576 L958.118 72.576 L958.118 19.4686 L942.522 60.9499 L934.299 60.9499 L918.703 19.4686 L918.703 72.576 L910.763 72.576 L910.763 12.096 Z" fill="#000000" fill-rule="evenodd" fill-opacity="1" /><path clip-path="url(#clip310)" d="M 0 0 M1012.72 48.0275 L1012.72 51.6733 L978.454 51.6733 Q978.94 59.3701 983.072 63.421 Q987.244 67.4314 994.657 67.4314 Q998.951 67.4314 1002.96 66.3781 Q1007.01 65.3249 1010.98 63.2184 L1010.98 70.267 Q1006.97 71.9684 1002.76 72.8596 Q998.546 73.7508 994.212 73.7508 Q983.355 73.7508 976.995 67.4314 Q970.676 61.1119 970.676 50.3365 Q970.676 39.1965 976.671 32.6746 Q982.707 26.1121 992.915 26.1121 Q1002.07 26.1121 1007.38 32.0264 Q1012.72 37.9003 1012.72 48.0275 M1005.27 45.84 Q1005.19 39.7232 1001.83 36.0774 Q998.506 32.4315 992.996 32.4315 Q986.758 32.4315 982.991 35.9558 Q979.264 39.4801 978.697 45.8805 L1005.27 45.84 Z" fill="#000000" fill-rule="evenodd" fill-opacity="1" /><path clip-path="url(#clip310)" d="M 0 0 M1041.16 49.7694 Q1032.13 49.7694 1028.64 51.8354 Q1025.16 53.9013 1025.16 58.8839 Q1025.16 62.8538 1027.75 65.2034 Q1030.39 67.5124 1034.88 67.5124 Q1041.08 67.5124 1044.81 63.1374 Q1048.57 58.7219 1048.57 51.4303 L1048.57 49.7694 L1041.16 49.7694 M1056.03 46.6907 L1056.03 72.576 L1048.57 72.576 L1048.57 65.6895 Q1046.02 69.8214 1042.21 71.8063 Q1038.41 73.7508 1032.9 73.7508 Q1025.93 73.7508 1021.8 69.8619 Q1017.71 65.9325 1017.71 59.3701 Q1017.71 51.7138 1022.81 47.825 Q1027.96 43.9361 1038.12 43.9361 L1048.57 43.9361 L1048.57 43.2069 Q1048.57 38.0623 1045.17 35.2672 Q1041.81 32.4315 1035.69 32.4315 Q1031.8 32.4315 1028.12 33.3632 Q1024.43 34.295 1021.03 36.1584 L1021.03 29.2718 Q1025.12 27.692 1028.97 26.9223 Q1032.82 26.1121 1036.46 26.1121 Q1046.31 26.1121 1051.17 31.2163 Q1056.03 36.3204 1056.03 46.6907 Z" fill="#000000" fill-rule="evenodd" fill-opacity="1" /><path clip-path="url(#clip310)" d="M 0 0 M1101.56 45.1919 L1101.56 72.576 L1094.11 72.576 L1094.11 45.4349 Q1094.11 38.994 1091.6 35.7938 Q1089.08 32.5936 1084.06 32.5936 Q1078.02 32.5936 1074.54 36.4419 Q1071.06 40.2903 1071.06 46.9338 L1071.06 72.576 L1063.56 72.576 L1063.56 27.2059 L1071.06 27.2059 L1071.06 34.2544 Q1073.73 30.163 1077.34 28.1376 Q1080.98 26.1121 1085.72 26.1121 Q1093.54 26.1121 1097.55 30.9732 Q1101.56 35.7938 1101.56 45.1919 Z" fill="#000000" fill-rule="evenodd" fill-opacity="1" /><path clip-path="url(#clip310)" d="M 0 0 M1138.3 28.5427 L1138.3 35.5912 Q1135.14 33.9709 1131.74 33.1607 Q1128.34 32.3505 1124.69 32.3505 Q1119.14 32.3505 1116.35 34.0519 Q1113.59 35.7533 1113.59 39.156 Q1113.59 41.7486 1115.58 43.2475 Q1117.56 44.7058 1123.56 46.0426 L1126.11 46.6097 Q1134.05 48.3111 1137.37 51.4303 Q1140.73 54.509 1140.73 60.0587 Q1140.73 66.3781 1135.71 70.0644 Q1130.73 73.7508 1121.98 73.7508 Q1118.33 73.7508 1114.36 73.0216 Q1110.43 72.3329 1106.06 70.9151 L1106.06 63.2184 Q1110.19 65.3654 1114.2 66.4591 Q1118.21 67.5124 1122.14 67.5124 Q1127.41 67.5124 1130.24 65.73 Q1133.08 63.9071 1133.08 60.6258 Q1133.08 57.5877 1131.01 55.9673 Q1128.99 54.3469 1122.06 52.8481 L1119.47 52.2405 Q1112.54 50.7821 1109.46 47.7845 Q1106.38 44.7463 1106.38 39.4801 Q1106.38 33.0797 1110.92 29.5959 Q1115.46 26.1121 1123.8 26.1121 Q1127.93 26.1121 1131.58 26.7198 Q1135.22 27.3274 1138.3 28.5427 Z" fill="#000000" fill-rule="evenodd" fill-opacity="1" /><path clip-path="url(#clip310)" d="M 0 0 M656.33 1840.87 L683.639 1840.87 L683.639 1846.28 L662.76 1846.28 L662.76 1860.29 L681.602 1860.29 L681.602 1865.7 L662.76 1865.7 L662.76 1888.39 L656.33 1888.39 L656.33 1840.87 Z" fill="#000000" fill-rule="evenodd" fill-opacity="1" /><path clip-path="url(#clip310)" d="M 0 0 M685.039 1852.74 L690.896 1852.74 L690.896 1888.39 L685.039 1888.39 L685.039 1852.74 M685.039 1838.87 L690.896 1838.87 L690.896 1846.28 L685.039 1846.28 L685.039 1838.87 Z" fill="#000000" fill-rule="evenodd" fill-opacity="1" /><path clip-path="url(#clip310)" d="M 0 0 M717.696 1858.22 Q716.709 1857.65 715.531 1857.39 Q714.385 1857.1 712.985 1857.1 Q708.02 1857.1 705.346 1860.35 Q702.704 1863.57 702.704 1869.61 L702.704 1888.39 L696.816 1888.39 L696.816 1852.74 L702.704 1852.74 L702.704 1858.28 Q704.55 1855.04 707.51 1853.48 Q710.47 1851.88 714.704 1851.88 Q715.308 1851.88 716.04 1851.98 Q716.773 1852.04 717.664 1852.2 L717.696 1858.22 Z" fill="#000000" fill-rule="evenodd" fill-opacity="1" /><path clip-path="url(#clip310)" d="M 0 0 M746.564 1853.79 L746.564 1859.33 Q744.081 1858.06 741.408 1857.42 Q738.734 1856.79 735.87 1856.79 Q731.509 1856.79 729.313 1858.12 Q727.149 1859.46 727.149 1862.13 Q727.149 1864.17 728.708 1865.35 Q730.268 1866.49 734.978 1867.54 L736.984 1867.99 Q743.222 1869.33 745.832 1871.78 Q748.474 1874.2 748.474 1878.56 Q748.474 1883.52 744.527 1886.42 Q740.612 1889.31 733.737 1889.31 Q730.873 1889.31 727.753 1888.74 Q724.666 1888.2 721.229 1887.09 L721.229 1881.04 Q724.475 1882.73 727.626 1883.59 Q730.777 1884.41 733.864 1884.41 Q738.002 1884.41 740.23 1883.01 Q742.458 1881.58 742.458 1879 Q742.458 1876.62 740.835 1875.34 Q739.243 1874.07 733.801 1872.89 L731.764 1872.41 Q726.321 1871.27 723.902 1868.91 Q721.483 1866.53 721.483 1862.39 Q721.483 1857.36 725.048 1854.62 Q728.613 1851.88 735.169 1851.88 Q738.416 1851.88 741.281 1852.36 Q744.145 1852.84 746.564 1853.79 Z" fill="#000000" fill-rule="evenodd" fill-opacity="1" /><path clip-path="url(#clip310)" d="M 0 0 M760.409 1842.62 L760.409 1852.74 L772.472 1852.74 L772.472 1857.3 L760.409 1857.3 L760.409 1876.65 Q760.409 1881.01 761.587 1882.25 Q762.797 1883.49 766.457 1883.49 L772.472 1883.49 L772.472 1888.39 L766.457 1888.39 Q759.677 1888.39 757.099 1885.88 Q754.521 1883.33 754.521 1876.65 L754.521 1857.3 L750.224 1857.3 L750.224 1852.74 L754.521 1852.74 L754.521 1842.62 L760.409 1842.62 Z" fill="#000000" fill-rule="evenodd" fill-opacity="1" /><path clip-path="url(#clip310)" d="M 0 0 M789.023 1840.87 L794.434 1840.87 L777.883 1894.44 L772.472 1894.44 L789.023 1840.87 Z" fill="#000000" fill-rule="evenodd" fill-opacity="1" /><path clip-path="url(#clip310)" d="M 0 0 M829.318 1842.43 L829.318 1848.7 Q825.658 1846.95 822.411 1846.09 Q819.165 1845.23 816.141 1845.23 Q810.89 1845.23 808.025 1847.27 Q805.192 1849.31 805.192 1853.06 Q805.192 1856.21 807.07 1857.84 Q808.98 1859.43 814.263 1860.41 L818.146 1861.21 Q825.34 1862.58 828.745 1866.05 Q832.183 1869.49 832.183 1875.28 Q832.183 1882.18 827.536 1885.75 Q822.921 1889.31 813.977 1889.31 Q810.603 1889.31 806.784 1888.55 Q802.996 1887.79 798.922 1886.29 L798.922 1879.67 Q802.837 1881.87 806.593 1882.98 Q810.348 1884.09 813.977 1884.09 Q819.483 1884.09 822.475 1881.93 Q825.467 1879.77 825.467 1875.76 Q825.467 1872.25 823.303 1870.28 Q821.17 1868.31 816.269 1867.32 L812.354 1866.56 Q805.16 1865.12 801.946 1862.07 Q798.731 1859.01 798.731 1853.57 Q798.731 1847.27 803.155 1843.64 Q807.611 1840.01 815.409 1840.01 Q818.751 1840.01 822.22 1840.62 Q825.69 1841.22 829.318 1842.43 Z" fill="#000000" fill-rule="evenodd" fill-opacity="1" /><path clip-path="url(#clip310)" d="M 0 0 M868.817 1869.1 L868.817 1871.97 L841.891 1871.97 Q842.272 1878.02 845.519 1881.2 Q848.797 1884.35 854.622 1884.35 Q857.996 1884.35 861.147 1883.52 Q864.33 1882.69 867.449 1881.04 L867.449 1886.58 Q864.298 1887.91 860.988 1888.61 Q857.677 1889.31 854.272 1889.31 Q845.742 1889.31 840.745 1884.35 Q835.779 1879.38 835.779 1870.92 Q835.779 1862.16 840.49 1857.04 Q845.233 1851.88 853.253 1851.88 Q860.447 1851.88 864.616 1856.53 Q868.817 1861.15 868.817 1869.1 M862.961 1867.38 Q862.897 1862.58 860.256 1859.71 Q857.646 1856.85 853.317 1856.85 Q848.415 1856.85 845.455 1859.62 Q842.527 1862.39 842.081 1867.42 L862.961 1867.38 Z" fill="#000000" fill-rule="evenodd" fill-opacity="1" /><path clip-path="url(#clip310)" d="M 0 0 M900.614 1854.11 L900.614 1859.59 Q898.132 1858.22 895.617 1857.55 Q893.134 1856.85 890.588 1856.85 Q884.891 1856.85 881.74 1860.48 Q878.589 1864.07 878.589 1870.6 Q878.589 1877.12 881.74 1880.75 Q884.891 1884.35 890.588 1884.35 Q893.134 1884.35 895.617 1883.68 Q898.132 1882.98 900.614 1881.61 L900.614 1887.02 Q898.163 1888.17 895.522 1888.74 Q892.912 1889.31 889.952 1889.31 Q881.899 1889.31 877.157 1884.25 Q872.414 1879.19 872.414 1870.6 Q872.414 1861.88 877.188 1856.88 Q881.994 1851.88 890.334 1851.88 Q893.039 1851.88 895.617 1852.46 Q898.195 1853 900.614 1854.11 Z" fill="#000000" fill-rule="evenodd" fill-opacity="1" /><path clip-path="url(#clip310)" d="M 0 0 M920.571 1856.85 Q915.86 1856.85 913.123 1860.54 Q910.386 1864.2 910.386 1870.6 Q910.386 1877 913.091 1880.69 Q915.828 1884.35 920.571 1884.35 Q925.249 1884.35 927.987 1880.66 Q930.724 1876.97 930.724 1870.6 Q930.724 1864.27 927.987 1860.57 Q925.249 1856.85 920.571 1856.85 M920.571 1851.88 Q928.209 1851.88 932.57 1856.85 Q936.931 1861.81 936.931 1870.6 Q936.931 1879.35 932.57 1884.35 Q928.209 1889.31 920.571 1889.31 Q912.9 1889.31 908.539 1884.35 Q904.211 1879.35 904.211 1870.6 Q904.211 1861.81 908.539 1856.85 Q912.9 1851.88 920.571 1851.88 Z" fill="#000000" fill-rule="evenodd" fill-opacity="1" /><path clip-path="url(#clip310)" d="M 0 0 M972.706 1866.88 L972.706 1888.39 L966.849 1888.39 L966.849 1867.07 Q966.849 1862.01 964.876 1859.49 Q962.903 1856.98 958.956 1856.98 Q954.213 1856.98 951.476 1860 Q948.739 1863.02 948.739 1868.24 L948.739 1888.39 L942.851 1888.39 L942.851 1852.74 L948.739 1852.74 L948.739 1858.28 Q950.84 1855.07 953.672 1853.48 Q956.537 1851.88 960.261 1851.88 Q966.404 1851.88 969.555 1855.7 Q972.706 1859.49 972.706 1866.88 Z" fill="#000000" fill-rule="evenodd" fill-opacity="1" /><path clip-path="url(#clip310)" d="M 0 0 M1002.31 1858.15 L1002.31 1838.87 L1008.16 1838.87 L1008.16 1888.39 L1002.31 1888.39 L1002.31 1883.04 Q1000.46 1886.23 997.628 1887.79 Q994.827 1889.31 990.88 1889.31 Q984.419 1889.31 980.345 1884.16 Q976.302 1879 976.302 1870.6 Q976.302 1862.2 980.345 1857.04 Q984.419 1851.88 990.88 1851.88 Q994.827 1851.88 997.628 1853.44 Q1000.46 1854.97 1002.31 1858.15 M982.35 1870.6 Q982.35 1877.06 984.992 1880.75 Q987.665 1884.41 992.312 1884.41 Q996.959 1884.41 999.633 1880.75 Q1002.31 1877.06 1002.31 1870.6 Q1002.31 1864.14 999.633 1860.48 Q996.959 1856.79 992.312 1856.79 Q987.665 1856.79 984.992 1860.48 Q982.35 1864.14 982.35 1870.6 Z" fill="#000000" fill-rule="evenodd" fill-opacity="1" /><path clip-path="url(#clip310)" d="M 0 0 M1067.68 1881.61 L1067.68 1868.85 L1057.18 1868.85 L1057.18 1863.57 L1074.05 1863.57 L1074.05 1883.97 Q1070.32 1886.61 1065.84 1887.98 Q1061.35 1889.31 1056.26 1889.31 Q1045.12 1889.31 1038.81 1882.82 Q1032.54 1876.3 1032.54 1864.68 Q1032.54 1853.03 1038.81 1846.54 Q1045.12 1840.01 1056.26 1840.01 Q1060.9 1840.01 1065.07 1841.16 Q1069.27 1842.3 1072.81 1844.53 L1072.81 1851.37 Q1069.24 1848.35 1065.23 1846.82 Q1061.22 1845.3 1056.8 1845.3 Q1048.08 1845.3 1043.68 1850.17 Q1039.32 1855.04 1039.32 1864.68 Q1039.32 1874.29 1043.68 1879.16 Q1048.08 1884.03 1056.8 1884.03 Q1060.2 1884.03 1062.88 1883.46 Q1065.55 1882.85 1067.68 1881.61 Z" fill="#000000" fill-rule="evenodd" fill-opacity="1" /><path clip-path="url(#clip310)" d="M 0 0 M1096.39 1870.47 Q1089.29 1870.47 1086.56 1872.1 Q1083.82 1873.72 1083.82 1877.63 Q1083.82 1880.75 1085.86 1882.6 Q1087.93 1884.41 1091.46 1884.41 Q1096.33 1884.41 1099.26 1880.98 Q1102.22 1877.51 1102.22 1871.78 L1102.22 1870.47 L1096.39 1870.47 M1108.07 1868.05 L1108.07 1888.39 L1102.22 1888.39 L1102.22 1882.98 Q1100.21 1886.23 1097.22 1887.79 Q1094.23 1889.31 1089.9 1889.31 Q1084.42 1889.31 1081.18 1886.26 Q1077.96 1883.17 1077.96 1878.02 Q1077.96 1872 1081.97 1868.94 Q1086.02 1865.89 1094 1865.89 L1102.22 1865.89 L1102.22 1865.32 Q1102.22 1861.27 1099.54 1859.08 Q1096.9 1856.85 1092.09 1856.85 Q1089.04 1856.85 1086.14 1857.58 Q1083.25 1858.31 1080.57 1859.78 L1080.57 1854.37 Q1083.79 1853.13 1086.81 1852.52 Q1089.83 1851.88 1092.7 1851.88 Q1100.43 1851.88 1104.25 1855.89 Q1108.07 1859.91 1108.07 1868.05 Z" fill="#000000" fill-rule="evenodd" fill-opacity="1" /><path clip-path="url(#clip310)" d="M 0 0 M1141.97 1859.59 Q1144.17 1855.64 1147.22 1853.76 Q1150.28 1851.88 1154.41 1851.88 Q1159.98 1851.88 1163.01 1855.8 Q1166.03 1859.68 1166.03 1866.88 L1166.03 1888.39 L1160.14 1888.39 L1160.14 1867.07 Q1160.14 1861.94 1158.33 1859.46 Q1156.52 1856.98 1152.79 1856.98 Q1148.24 1856.98 1145.6 1860 Q1142.96 1863.02 1142.96 1868.24 L1142.96 1888.39 L1137.07 1888.39 L1137.07 1867.07 Q1137.07 1861.91 1135.25 1859.46 Q1133.44 1856.98 1129.65 1856.98 Q1125.16 1856.98 1122.52 1860.03 Q1119.88 1863.06 1119.88 1868.24 L1119.88 1888.39 L1113.99 1888.39 L1113.99 1852.74 L1119.88 1852.74 L1119.88 1858.28 Q1121.89 1855 1124.69 1853.44 Q1127.49 1851.88 1131.34 1851.88 Q1135.22 1851.88 1137.93 1853.86 Q1140.66 1855.83 1141.97 1859.59 Z" fill="#000000" fill-rule="evenodd" fill-opacity="1" /><path clip-path="url(#clip310)" d="M 0 0 M1202.67 1869.1 L1202.67 1871.97 L1175.74 1871.97 Q1176.12 1878.02 1179.37 1881.2 Q1182.65 1884.35 1188.47 1884.35 Q1191.85 1884.35 1195 1883.52 Q1198.18 1882.69 1201.3 1881.04 L1201.3 1886.58 Q1198.15 1887.91 1194.84 1888.61 Q1191.53 1889.31 1188.12 1889.31 Q1179.59 1889.31 1174.59 1884.35 Q1169.63 1879.38 1169.63 1870.92 Q1169.63 1862.16 1174.34 1857.04 Q1179.08 1851.88 1187.1 1851.88 Q1194.3 1851.88 1198.47 1856.53 Q1202.67 1861.15 1202.67 1869.1 M1196.81 1867.38 Q1196.75 1862.58 1194.11 1859.71 Q1191.5 1856.85 1187.17 1856.85 Q1182.26 1856.85 1179.3 1859.62 Q1176.38 1862.39 1175.93 1867.42 L1196.81 1867.38 Z" fill="#000000" fill-rule="evenodd" fill-opacity="1" /><path clip-path="url(#clip310)" d="M 0 0 M1243.6 1838.93 Q1239.33 1846.25 1237.26 1853.41 Q1235.2 1860.57 1235.2 1867.93 Q1235.2 1875.28 1237.26 1882.5 Q1239.37 1889.7 1243.6 1896.99 L1238.51 1896.99 Q1233.73 1889.51 1231.34 1882.28 Q1228.99 1875.06 1228.99 1867.93 Q1228.99 1860.83 1231.34 1853.63 Q1233.7 1846.44 1238.51 1838.93 L1243.6 1838.93 Z" fill="#000000" fill-rule="evenodd" fill-opacity="1" /><path clip-path="url(#clip310)" d="M 0 0 M1270.05 1862.77 Q1274.66 1863.76 1277.24 1866.88 Q1279.85 1869.99 1279.85 1874.58 Q1279.85 1881.61 1275.01 1885.46 Q1270.18 1889.31 1261.26 1889.31 Q1258.27 1889.31 1255.09 1888.71 Q1251.94 1888.14 1248.56 1886.96 L1248.56 1880.75 Q1251.24 1882.31 1254.42 1883.11 Q1257.6 1883.9 1261.07 1883.9 Q1267.12 1883.9 1270.27 1881.52 Q1273.45 1879.13 1273.45 1874.58 Q1273.45 1870.38 1270.49 1868.02 Q1267.57 1865.63 1262.31 1865.63 L1256.78 1865.63 L1256.78 1860.35 L1262.57 1860.35 Q1267.31 1860.35 1269.83 1858.47 Q1272.34 1856.56 1272.34 1853 Q1272.34 1849.34 1269.73 1847.4 Q1267.15 1845.42 1262.31 1845.42 Q1259.67 1845.42 1256.65 1846 Q1253.62 1846.57 1250 1847.78 L1250 1842.05 Q1253.66 1841.03 1256.84 1840.52 Q1260.05 1840.01 1262.89 1840.01 Q1270.21 1840.01 1274.47 1843.35 Q1278.74 1846.66 1278.74 1852.33 Q1278.74 1856.28 1276.48 1859.01 Q1274.22 1861.72 1270.05 1862.77 Z" fill="#000000" fill-rule="evenodd" fill-opacity="1" /><path clip-path="url(#clip310)" d="M 0 0 M1300.57 1845.1 Q1295.61 1845.1 1293.09 1850.01 Q1290.61 1854.88 1290.61 1864.68 Q1290.61 1874.45 1293.09 1879.35 Q1295.61 1884.22 1300.57 1884.22 Q1305.57 1884.22 1308.05 1879.35 Q1310.57 1874.45 1310.57 1864.68 Q1310.57 1854.88 1308.05 1850.01 Q1305.57 1845.1 1300.57 1845.1 M1300.57 1840.01 Q1308.56 1840.01 1312.76 1846.35 Q1317 1852.65 1317 1864.68 Q1317 1876.68 1312.76 1883.01 Q1308.56 1889.31 1300.57 1889.31 Q1292.58 1889.31 1288.35 1883.01 Q1284.15 1876.68 1284.15 1864.68 Q1284.15 1852.65 1288.35 1846.35 Q1292.58 1840.01 1300.57 1840.01 Z" fill="#000000" fill-rule="evenodd" fill-opacity="1" /><path clip-path="url(#clip310)" d="M 0 0 M1364.39 1867.48 Q1361.62 1867.48 1360.03 1869.84 Q1358.47 1872.19 1358.47 1876.39 Q1358.47 1880.53 1360.03 1882.92 Q1361.62 1885.27 1364.39 1885.27 Q1367.09 1885.27 1368.65 1882.92 Q1370.24 1880.53 1370.24 1876.39 Q1370.24 1872.22 1368.65 1869.87 Q1367.09 1867.48 1364.39 1867.48 M1364.39 1863.44 Q1369.42 1863.44 1372.38 1866.94 Q1375.34 1870.44 1375.34 1876.39 Q1375.34 1882.34 1372.34 1885.85 Q1369.38 1889.31 1364.39 1889.31 Q1359.3 1889.31 1356.34 1885.85 Q1353.38 1882.34 1353.38 1876.39 Q1353.38 1870.41 1356.34 1866.94 Q1359.33 1863.44 1364.39 1863.44 M1331.54 1844.05 Q1328.8 1844.05 1327.21 1846.44 Q1325.65 1848.8 1325.65 1852.93 Q1325.65 1857.14 1327.21 1859.49 Q1328.77 1861.85 1331.54 1861.85 Q1334.31 1861.85 1335.87 1859.49 Q1337.46 1857.14 1337.46 1852.93 Q1337.46 1848.83 1335.87 1846.44 Q1334.28 1844.05 1331.54 1844.05 M1360.28 1840.01 L1365.37 1840.01 L1335.65 1889.31 L1330.55 1889.31 L1360.28 1840.01 M1331.54 1840.01 Q1336.57 1840.01 1339.56 1843.51 Q1342.55 1846.98 1342.55 1852.93 Q1342.55 1858.95 1339.56 1862.42 Q1336.6 1865.89 1331.54 1865.89 Q1326.48 1865.89 1323.52 1862.42 Q1320.59 1858.92 1320.59 1852.93 Q1320.59 1847.01 1323.55 1843.51 Q1326.51 1840.01 1331.54 1840.01 Z" fill="#000000" fill-rule="evenodd" fill-opacity="1" /><path clip-path="url(#clip310)" d="M 0 0 M1380.56 1838.93 L1385.65 1838.93 Q1390.42 1846.44 1392.78 1853.63 Q1395.17 1860.83 1395.17 1867.93 Q1395.17 1875.06 1392.78 1882.28 Q1390.42 1889.51 1385.65 1896.99 L1380.56 1896.99 Q1384.79 1889.7 1386.86 1882.5 Q1388.96 1875.28 1388.96 1867.93 Q1388.96 1860.57 1386.86 1853.41 Q1384.79 1846.25 1380.56 1838.93 Z" fill="#000000" fill-rule="evenodd" fill-opacity="1" /><path clip-path="url(#clip310)" d="M 0 0 M101.992 1107.96 L108.263 1107.96 Q106.512 1111.62 105.653 1114.87 Q104.793 1118.11 104.793 1121.14 Q104.793 1126.39 106.83 1129.25 Q108.867 1132.09 112.623 1132.09 Q115.774 1132.09 117.397 1130.21 Q118.989 1128.3 119.975 1123.01 L120.771 1119.13 Q122.14 1111.94 125.609 1108.53 Q129.047 1105.1 134.839 1105.1 Q141.746 1105.1 145.311 1109.74 Q148.876 1114.36 148.876 1123.3 Q148.876 1126.68 148.112 1130.49 Q147.348 1134.28 145.852 1138.36 L139.232 1138.36 Q141.428 1134.44 142.542 1130.69 Q143.656 1126.93 143.656 1123.3 Q143.656 1117.8 141.492 1114.8 Q139.327 1111.81 135.317 1111.81 Q131.816 1111.81 129.842 1113.98 Q127.869 1116.11 126.882 1121.01 L126.118 1124.92 Q124.686 1132.12 121.631 1135.33 Q118.575 1138.55 113.132 1138.55 Q106.83 1138.55 103.202 1134.12 Q99.5734 1129.67 99.5734 1121.87 Q99.5734 1118.53 100.178 1115.06 Q100.783 1111.59 101.992 1107.96 Z" fill="#000000" fill-rule="evenodd" fill-opacity="1" /><path clip-path="url(#clip310)" d="M 0 0 M147.953 1086.44 L100.433 1104.59 L100.433 1097.87 L140.441 1082.82 L100.433 1067.73 L100.433 1061.04 L147.953 1079.16 L147.953 1086.44 Z" fill="#000000" fill-rule="evenodd" fill-opacity="1" /><path clip-path="url(#clip310)" d="M 0 0 M105.716 1048.22 L142.669 1048.22 L142.669 1040.45 Q142.669 1030.62 138.213 1026.07 Q133.757 1021.48 124.145 1021.48 Q114.596 1021.48 110.172 1026.07 Q105.716 1030.62 105.716 1040.45 L105.716 1048.22 M100.433 1054.65 L100.433 1041.44 Q100.433 1027.62 106.194 1021.16 Q111.923 1014.7 124.145 1014.7 Q136.431 1014.7 142.192 1021.2 Q147.953 1027.69 147.953 1041.44 L147.953 1054.65 L100.433 1054.65 Z" fill="#000000" fill-rule="evenodd" fill-opacity="1" /><path clip-path="url(#clip310)" d="M 0 0 M98.4912 973.771 Q105.812 978.036 112.973 980.105 Q120.135 982.174 127.487 982.174 Q134.839 982.174 142.064 980.105 Q149.258 978.004 156.546 973.771 L156.546 978.864 Q149.067 983.638 141.842 986.025 Q134.617 988.38 127.487 988.38 Q120.389 988.38 113.196 986.025 Q106.003 983.67 98.4912 978.864 L98.4912 973.771 Z" fill="#000000" fill-rule="evenodd" fill-opacity="1" /><path clip-path="url(#clip310)" d="M 0 0 M142.542 961.262 L142.542 938.823 L147.953 938.823 L147.953 968.997 L142.542 968.997 Q138.754 965.336 132.389 959.034 Q125.991 952.701 124.145 951.077 Q120.676 947.99 118.289 946.78 Q115.87 945.539 113.546 945.539 Q109.759 945.539 107.371 948.213 Q104.984 950.854 104.984 955.119 Q104.984 958.143 106.035 961.517 Q107.085 964.859 109.217 968.678 L102.724 968.678 Q101.165 964.795 100.369 961.422 Q99.5734 958.048 99.5734 955.247 Q99.5734 947.863 103.265 943.47 Q106.958 939.078 113.132 939.078 Q116.061 939.078 118.702 940.192 Q121.312 941.274 124.877 944.17 Q125.8 944.966 130.224 949.231 Q134.617 953.496 142.542 961.262 Z" fill="#000000" fill-rule="evenodd" fill-opacity="1" /><path clip-path="url(#clip310)" d="M 0 0 M142.542 926.315 L142.542 903.876 L147.953 903.876 L147.953 934.049 L142.542 934.049 Q138.754 930.389 132.389 924.087 Q125.991 917.753 124.145 916.13 Q120.676 913.042 118.289 911.833 Q115.87 910.591 113.546 910.591 Q109.759 910.591 107.371 913.265 Q104.984 915.907 104.984 920.172 Q104.984 923.195 106.035 926.569 Q107.085 929.911 109.217 933.731 L102.724 933.731 Q101.165 929.848 100.369 926.474 Q99.5734 923.1 99.5734 920.299 Q99.5734 912.915 103.265 908.523 Q106.958 904.13 113.132 904.13 Q116.061 904.13 118.702 905.244 Q121.312 906.326 124.877 909.223 Q125.8 910.018 130.224 914.283 Q134.617 918.548 142.542 926.315 Z" fill="#000000" fill-rule="evenodd" fill-opacity="1" /><path clip-path="url(#clip310)" d="M 0 0 M127.041 856.483 Q127.041 859.252 129.397 860.843 Q131.752 862.403 135.953 862.403 Q140.091 862.403 142.478 860.843 Q144.834 859.252 144.834 856.483 Q144.834 853.777 142.478 852.218 Q140.091 850.626 135.953 850.626 Q131.784 850.626 129.429 852.218 Q127.041 853.777 127.041 856.483 M122.999 856.483 Q122.999 851.454 126.5 848.494 Q130.001 845.534 135.953 845.534 Q141.905 845.534 145.406 848.526 Q148.876 851.486 148.876 856.483 Q148.876 861.575 145.406 864.535 Q141.905 867.496 135.953 867.496 Q129.97 867.496 126.5 864.535 Q122.999 861.544 122.999 856.483 M103.616 889.33 Q103.616 892.067 106.003 893.659 Q108.358 895.218 112.496 895.218 Q116.697 895.218 119.052 893.659 Q121.408 892.099 121.408 889.33 Q121.408 886.561 119.052 885.001 Q116.697 883.41 112.496 883.41 Q108.39 883.41 106.003 885.001 Q103.616 886.593 103.616 889.33 M99.5734 860.589 L99.5734 855.496 L148.876 885.224 L148.876 890.317 L99.5734 860.589 M99.5734 889.33 Q99.5734 884.301 103.075 881.309 Q106.544 878.317 112.496 878.317 Q118.511 878.317 121.981 881.309 Q125.45 884.269 125.45 889.33 Q125.45 894.391 121.981 897.351 Q118.48 900.279 112.496 900.279 Q106.576 900.279 103.075 897.319 Q99.5734 894.359 99.5734 889.33 Z" fill="#000000" fill-rule="evenodd" fill-opacity="1" /><path clip-path="url(#clip310)" d="M 0 0 M98.4912 840.314 L98.4912 835.221 Q106.003 830.447 113.196 828.092 Q120.389 825.705 127.487 825.705 Q134.617 825.705 141.842 828.092 Q149.067 830.447 156.546 835.221 L156.546 840.314 Q149.258 836.081 142.064 834.012 Q134.839 831.911 127.487 831.911 Q120.135 831.911 112.973 834.012 Q105.812 836.081 98.4912 840.314 Z" fill="#000000" fill-rule="evenodd" fill-opacity="1" /><circle clip-path="url(#clip312)" cx="1032.56" cy="972.125" r="5" fill="#800080" fill-rule="evenodd" fill-opacity="1" stroke="none"/>
<circle clip-path="url(#clip312)" cx="1015.37" cy="954.679" r="5" fill="#800080" fill-rule="evenodd" fill-opacity="1" stroke="none"/>
<circle clip-path="url(#clip312)" cx="998.954" cy="1129.68" r="5" fill="#800080" fill-rule="evenodd" fill-opacity="1" stroke="none"/>
<circle clip-path="url(#clip312)" cx="1016.29" cy="1038.18" r="5" fill="#800080" fill-rule="evenodd" fill-opacity="1" stroke="none"/>
<circle clip-path="url(#clip312)" cx="752.048" cy="1044.1" r="5" fill="#800080" fill-rule="evenodd" fill-opacity="1" stroke="none"/>
<circle clip-path="url(#clip312)" cx="402.503" cy="695.197" r="5" fill="#800080" fill-rule="evenodd" fill-opacity="1" stroke="none"/>
<circle clip-path="url(#clip312)" cx="790.128" cy="1092.38" r="5" fill="#800080" fill-rule="evenodd" fill-opacity="1" stroke="none"/>
<circle clip-path="url(#clip312)" cx="879.014" cy="1157.06" r="5" fill="#800080" fill-rule="evenodd" fill-opacity="1" stroke="none"/>
<circle clip-path="url(#clip312)" cx="776.628" cy="1097.23" r="5" fill="#800080" fill-rule="evenodd" fill-opacity="1" stroke="none"/>
<circle clip-path="url(#clip312)" cx="572.306" cy="1073.65" r="5" fill="#800080" fill-rule="evenodd" fill-opacity="1" stroke="none"/>
<circle clip-path="url(#clip312)" cx="1021.85" cy="1049.79" r="5" fill="#800080" fill-rule="evenodd" fill-opacity="1" stroke="none"/>
<circle clip-path="url(#clip312)" cx="897.985" cy="1041.96" r="5" fill="#800080" fill-rule="evenodd" fill-opacity="1" stroke="none"/>
<circle clip-path="url(#clip312)" cx="962.717" cy="1070.04" r="5" fill="#800080" fill-rule="evenodd" fill-opacity="1" stroke="none"/>
<circle clip-path="url(#clip312)" cx="1049.36" cy="931.043" r="5" fill="#800080" fill-rule="evenodd" fill-opacity="1" stroke="none"/>
<circle clip-path="url(#clip312)" cx="990.764" cy="861.645" r="5" fill="#800080" fill-rule="evenodd" fill-opacity="1" stroke="none"/>
<circle clip-path="url(#clip312)" cx="1026.92" cy="869.366" r="5" fill="#800080" fill-rule="evenodd" fill-opacity="1" stroke="none"/>
<circle clip-path="url(#clip312)" cx="1086.88" cy="879.107" r="5" fill="#800080" fill-rule="evenodd" fill-opacity="1" stroke="none"/>
<circle clip-path="url(#clip312)" cx="1051.82" cy="953.466" r="5" fill="#800080" fill-rule="evenodd" fill-opacity="1" stroke="none"/>
<circle clip-path="url(#clip312)" cx="956.171" cy="497.242" r="5" fill="#800080" fill-rule="evenodd" fill-opacity="1" stroke="none"/>
<circle clip-path="url(#clip312)" cx="1016.08" cy="1072.03" r="5" fill="#800080" fill-rule="evenodd" fill-opacity="1" stroke="none"/>
<circle clip-path="url(#clip312)" cx="1183.49" cy="984.882" r="5" fill="#800080" fill-rule="evenodd" fill-opacity="1" stroke="none"/>
<circle clip-path="url(#clip312)" cx="1045.76" cy="1097.71" r="5" fill="#800080" fill-rule="evenodd" fill-opacity="1" stroke="none"/>
<circle clip-path="url(#clip312)" cx="894.328" cy="1057.96" r="5" fill="#800080" fill-rule="evenodd" fill-opacity="1" stroke="none"/>
<circle clip-path="url(#clip312)" cx="1068.19" cy="950.49" r="5" fill="#800080" fill-rule="evenodd" fill-opacity="1" stroke="none"/>
<polyline clip-path="url(#clip312)" style="stroke:#800080; stroke-width:8; stroke-opacity:1; fill:none" points="
  1226.2,730.804 1265.24,1538.92 
  "/>
<polyline clip-path="url(#clip312)" style="stroke:#800080; stroke-width:2.85373; stroke-opacity:1; fill:none" points="
  682.226,1300.03 888.424,1366.3 
  "/>
<polyline clip-path="url(#clip312)" style="stroke:#ffa500; stroke-width:0.400893; stroke-opacity:1; fill:none" points="
  339.422,792.32 682.226,1300.03 
  "/>
<polyline clip-path="url(#clip312)" style="stroke:#800080; stroke-width:6.33751; stroke-opacity:1; fill:none" points="
  339.422,792.32 1220.34,937.517 
  "/>
<polyline clip-path="url(#clip312)" style="stroke:#800080; stroke-width:2.26852; stroke-opacity:1; fill:none" points="
  888.424,1366.3 1265.24,1538.92 
  "/>
<polyline clip-path="url(#clip312)" style="stroke:#ffa500; stroke-width:0.846596; stroke-opacity:1; fill:none" points="
  339.422,792.32 888.424,1366.3 
  "/>
<polyline clip-path="url(#clip312)" style="stroke:#800080; stroke-width:7.79186; stroke-opacity:1; fill:none" points="
  888.424,1366.3 1220.34,937.517 
  "/>
<polyline clip-path="url(#clip312)" style="stroke:#800080; stroke-width:4.01487; stroke-opacity:1; fill:none" points="
  682.226,1300.03 1220.34,937.517 
  "/>
<polyline clip-path="url(#clip312)" style="stroke:#800080; stroke-width:3.39171; stroke-opacity:1; fill:none" points="
  339.422,792.32 1226.2,730.804 
  "/>
<polyline clip-path="url(#clip312)" style="stroke:#800080; stroke-width:0.8681; stroke-opacity:1; fill:none" points="
  682.226,1300.03 1265.24,1538.92 
  "/>
<polyline clip-path="url(#clip312)" style="stroke:#800080; stroke-width:4.77472; stroke-opacity:1; fill:none" points="
  1220.34,937.517 1265.24,1538.92 
  "/>
<polyline clip-path="url(#clip312)" style="stroke:#800080; stroke-width:6.76076; stroke-opacity:1; fill:none" points="
  888.424,1366.3 1226.2,730.804 
  "/>
<polyline clip-path="url(#clip312)" style="stroke:#800080; stroke-width:2.12023; stroke-opacity:1; fill:none" points="
  682.226,1300.03 1226.2,730.804 
  "/>
<polyline clip-path="url(#clip312)" style="stroke:#800080; stroke-width:0.202469; stroke-opacity:1; fill:none" points="
  339.422,792.32 1265.24,1538.92 
  "/>
<polyline clip-path="url(#clip312)" style="stroke:#800080; stroke-width:0.78587; stroke-opacity:1; fill:none" points="
  1220.34,937.517 1226.2,730.804 
  "/>
<circle clip-path="url(#clip312)" cx="888.424" cy="1366.3" r="21" fill="#000000" fill-rule="evenodd" fill-opacity="1" stroke="none"/>
<circle clip-path="url(#clip312)" cx="1226.2" cy="730.804" r="25" fill="#000000" fill-rule="evenodd" fill-opacity="1" stroke="none"/>
<circle clip-path="url(#clip312)" cx="1265.24" cy="1538.92" r="20" fill="#000000" fill-rule="evenodd" fill-opacity="1" stroke="none"/>
<circle clip-path="url(#clip312)" cx="682.226" cy="1300.03" r="9" fill="#000000" fill-rule="evenodd" fill-opacity="1" stroke="none"/>
<circle clip-path="url(#clip312)" cx="1220.34" cy="937.517" r="28" fill="#000000" fill-rule="evenodd" fill-opacity="1" stroke="none"/>
<circle clip-path="url(#clip312)" cx="339.422" cy="792.32" r="6" fill="#000000" fill-rule="evenodd" fill-opacity="1" stroke="none"/>
<path clip-path="url(#clip310)" d="M 0 0 M845.103 1377.06 L845.103 1403.93 L850.751 1403.93 Q857.904 1403.93 861.214 1400.69 Q864.547 1397.45 864.547 1390.46 Q864.547 1383.51 861.214 1380.3 Q857.904 1377.06 850.751 1377.06 L845.103 1377.06 M840.427 1373.21 L850.033 1373.21 Q860.079 1373.21 864.778 1377.4 Q869.478 1381.57 869.478 1390.46 Q869.478 1399.39 864.755 1403.58 Q860.033 1407.77 850.033 1407.77 L840.427 1407.77 L840.427 1373.21 Z" fill="#000000" fill-rule="evenodd" fill-opacity="1" /><path clip-path="url(#clip310)" d="M 0 0 M885.727 1394.74 Q880.565 1394.74 878.575 1395.92 Q876.584 1397.1 876.584 1399.95 Q876.584 1402.22 878.065 1403.56 Q879.57 1404.88 882.139 1404.88 Q885.681 1404.88 887.811 1402.38 Q889.964 1399.86 889.964 1395.69 L889.964 1394.74 L885.727 1394.74 M894.223 1392.98 L894.223 1407.77 L889.964 1407.77 L889.964 1403.84 Q888.505 1406.2 886.329 1407.33 Q884.153 1408.44 881.005 1408.44 Q877.024 1408.44 874.663 1406.22 Q872.325 1403.98 872.325 1400.23 Q872.325 1395.85 875.241 1393.63 Q878.181 1391.41 883.991 1391.41 L889.964 1391.41 L889.964 1390.99 Q889.964 1388.05 888.019 1386.45 Q886.098 1384.83 882.602 1384.83 Q880.38 1384.83 878.274 1385.37 Q876.167 1385.9 874.223 1386.96 L874.223 1383.03 Q876.561 1382.13 878.76 1381.69 Q880.959 1381.22 883.042 1381.22 Q888.667 1381.22 891.445 1384.14 Q894.223 1387.06 894.223 1392.98 Z" fill="#000000" fill-rule="evenodd" fill-opacity="1" /><path clip-path="url(#clip310)" d="M 0 0 M902.903 1374.49 L902.903 1381.85 L911.676 1381.85 L911.676 1385.16 L902.903 1385.16 L902.903 1399.23 Q902.903 1402.4 903.76 1403.31 Q904.639 1404.21 907.301 1404.21 L911.676 1404.21 L911.676 1407.77 L907.301 1407.77 Q902.371 1407.77 900.496 1405.94 Q898.621 1404.09 898.621 1399.23 L898.621 1385.16 L895.496 1385.16 L895.496 1381.85 L898.621 1381.85 L898.621 1374.49 L902.903 1374.49 Z" fill="#000000" fill-rule="evenodd" fill-opacity="1" /><path clip-path="url(#clip310)" d="M 0 0 M927.926 1394.74 Q922.764 1394.74 920.774 1395.92 Q918.783 1397.1 918.783 1399.95 Q918.783 1402.22 920.264 1403.56 Q921.769 1404.88 924.338 1404.88 Q927.88 1404.88 930.01 1402.38 Q932.162 1399.86 932.162 1395.69 L932.162 1394.74 L927.926 1394.74 M936.422 1392.98 L936.422 1407.77 L932.162 1407.77 L932.162 1403.84 Q930.704 1406.2 928.528 1407.33 Q926.352 1408.44 923.204 1408.44 Q919.223 1408.44 916.862 1406.22 Q914.524 1403.98 914.524 1400.23 Q914.524 1395.85 917.44 1393.63 Q920.38 1391.41 926.19 1391.41 L932.162 1391.41 L932.162 1390.99 Q932.162 1388.05 930.218 1386.45 Q928.297 1384.83 924.801 1384.83 Q922.579 1384.83 920.473 1385.37 Q918.366 1385.9 916.422 1386.96 L916.422 1383.03 Q918.76 1382.13 920.959 1381.69 Q923.158 1381.22 925.241 1381.22 Q930.866 1381.22 933.644 1384.14 Q936.422 1387.06 936.422 1392.98 Z" fill="#000000" fill-rule="evenodd" fill-opacity="1" /><path clip-path="url(#clip310)" d="M 0 0 M999.152 737.716 L1028.39 737.716 L1028.39 741.651 L1016.12 741.651 L1016.12 772.276 L1011.42 772.276 L1011.42 741.651 L999.152 741.651 L999.152 737.716 Z" fill="#000000" fill-rule="evenodd" fill-opacity="1" /><path clip-path="url(#clip310)" d="M 0 0 M1046.98 758.248 L1046.98 760.332 L1027.39 760.332 Q1027.67 764.73 1030.03 767.045 Q1032.42 769.336 1036.65 769.336 Q1039.11 769.336 1041.4 768.734 Q1043.71 768.133 1045.98 766.929 L1045.98 770.957 Q1043.69 771.929 1041.28 772.438 Q1038.87 772.947 1036.4 772.947 Q1030.19 772.947 1026.56 769.336 Q1022.95 765.725 1022.95 759.568 Q1022.95 753.202 1026.37 749.475 Q1029.82 745.725 1035.66 745.725 Q1040.89 745.725 1043.92 749.105 Q1046.98 752.461 1046.98 758.248 M1042.72 756.998 Q1042.67 753.503 1040.75 751.42 Q1038.85 749.336 1035.7 749.336 Q1032.14 749.336 1029.99 751.35 Q1027.86 753.364 1027.53 757.022 L1042.72 756.998 Z" fill="#000000" fill-rule="evenodd" fill-opacity="1" /><path clip-path="url(#clip310)" d="M 0 0 M1070.1 747.346 L1070.1 751.327 Q1068.3 750.332 1066.47 749.846 Q1064.66 749.336 1062.81 749.336 Q1058.67 749.336 1056.37 751.975 Q1054.08 754.591 1054.08 759.336 Q1054.08 764.082 1056.37 766.721 Q1058.67 769.336 1062.81 769.336 Q1064.66 769.336 1066.47 768.85 Q1068.3 768.341 1070.1 767.346 L1070.1 771.281 Q1068.32 772.114 1066.4 772.531 Q1064.5 772.947 1062.35 772.947 Q1056.49 772.947 1053.04 769.267 Q1049.59 765.586 1049.59 759.336 Q1049.59 752.994 1053.06 749.36 Q1056.56 745.725 1062.62 745.725 Q1064.59 745.725 1066.47 746.142 Q1068.34 746.536 1070.1 747.346 Z" fill="#000000" fill-rule="evenodd" fill-opacity="1" /><path clip-path="url(#clip310)" d="M 0 0 M1096.12 756.628 L1096.12 772.276 L1091.86 772.276 L1091.86 756.767 Q1091.86 753.086 1090.42 751.258 Q1088.99 749.429 1086.12 749.429 Q1082.67 749.429 1080.68 751.628 Q1078.69 753.827 1078.69 757.623 L1078.69 772.276 L1074.41 772.276 L1074.41 736.258 L1078.69 736.258 L1078.69 750.378 Q1080.22 748.04 1082.28 746.883 Q1084.36 745.725 1087.07 745.725 Q1091.54 745.725 1093.83 748.503 Q1096.12 751.258 1096.12 756.628 Z" fill="#000000" fill-rule="evenodd" fill-opacity="1" /><path clip-path="url(#clip310)" d="M 0 0 M1122.14 756.628 L1122.14 772.276 L1117.88 772.276 L1117.88 756.767 Q1117.88 753.086 1116.44 751.258 Q1115.01 749.429 1112.14 749.429 Q1108.69 749.429 1106.7 751.628 Q1104.71 753.827 1104.71 757.623 L1104.71 772.276 L1100.42 772.276 L1100.42 746.35 L1104.71 746.35 L1104.71 750.378 Q1106.23 748.04 1108.3 746.883 Q1110.38 745.725 1113.09 745.725 Q1117.55 745.725 1119.85 748.503 Q1122.14 751.258 1122.14 756.628 Z" fill="#000000" fill-rule="evenodd" fill-opacity="1" /><path clip-path="url(#clip310)" d="M 0 0 M1126.61 746.35 L1130.86 746.35 L1130.86 772.276 L1126.61 772.276 L1126.61 746.35 M1126.61 736.258 L1130.86 736.258 L1130.86 741.651 L1126.61 741.651 L1126.61 736.258 Z" fill="#000000" fill-rule="evenodd" fill-opacity="1" /><path clip-path="url(#clip310)" d="M 0 0 M1153.99 747.346 L1153.99 751.327 Q1152.18 750.332 1150.36 749.846 Q1148.55 749.336 1146.7 749.336 Q1142.55 749.336 1140.26 751.975 Q1137.97 754.591 1137.97 759.336 Q1137.97 764.082 1140.26 766.721 Q1142.55 769.336 1146.7 769.336 Q1148.55 769.336 1150.36 768.85 Q1152.18 768.341 1153.99 767.346 L1153.99 771.281 Q1152.21 772.114 1150.29 772.531 Q1148.39 772.947 1146.23 772.947 Q1140.38 772.947 1136.93 769.267 Q1133.48 765.586 1133.48 759.336 Q1133.48 752.994 1136.95 749.36 Q1140.45 745.725 1146.51 745.725 Q1148.48 745.725 1150.36 746.142 Q1152.23 746.536 1153.99 747.346 Z" fill="#000000" fill-rule="evenodd" fill-opacity="1" /><path clip-path="url(#clip310)" d="M 0 0 M1170.24 759.244 Q1165.08 759.244 1163.09 760.424 Q1161.1 761.605 1161.1 764.452 Q1161.1 766.721 1162.58 768.063 Q1164.08 769.383 1166.65 769.383 Q1170.19 769.383 1172.32 766.883 Q1174.48 764.36 1174.48 760.193 L1174.48 759.244 L1170.24 759.244 M1178.73 757.485 L1178.73 772.276 L1174.48 772.276 L1174.48 768.341 Q1173.02 770.702 1170.84 771.836 Q1168.67 772.947 1165.52 772.947 Q1161.54 772.947 1159.17 770.725 Q1156.84 768.48 1156.84 764.73 Q1156.84 760.355 1159.75 758.133 Q1162.69 755.91 1168.5 755.91 L1174.48 755.91 L1174.48 755.494 Q1174.48 752.554 1172.53 750.957 Q1170.61 749.336 1167.11 749.336 Q1164.89 749.336 1162.79 749.869 Q1160.68 750.401 1158.73 751.466 L1158.73 747.531 Q1161.07 746.628 1163.27 746.188 Q1165.47 745.725 1167.55 745.725 Q1173.18 745.725 1175.96 748.642 Q1178.73 751.559 1178.73 757.485 Z" fill="#000000" fill-rule="evenodd" fill-opacity="1" /><path clip-path="url(#clip310)" d="M 0 0 M1183.2 736.258 L1187.46 736.258 L1187.46 772.276 L1183.2 772.276 L1183.2 736.258 Z" fill="#000000" fill-rule="evenodd" fill-opacity="1" /><path clip-path="url(#clip310)" d="M 0 0 M1211.63 780.146 L1211.63 783.457 L1187 783.457 L1187 780.146 L1211.63 780.146 Z" fill="#000000" fill-rule="evenodd" fill-opacity="1" /><path clip-path="url(#clip310)" d="M 0 0 M1242.16 740.378 L1242.16 745.309 Q1239.8 743.11 1237.11 742.022 Q1234.45 740.934 1231.44 740.934 Q1225.52 740.934 1222.37 744.568 Q1219.22 748.179 1219.22 755.031 Q1219.22 761.86 1222.37 765.494 Q1225.52 769.105 1231.44 769.105 Q1234.45 769.105 1237.11 768.017 Q1239.8 766.929 1242.16 764.73 L1242.16 769.614 Q1239.71 771.281 1236.95 772.114 Q1234.22 772.947 1231.16 772.947 Q1223.32 772.947 1218.8 768.156 Q1214.29 763.341 1214.29 755.031 Q1214.29 746.698 1218.8 741.906 Q1223.32 737.091 1231.16 737.091 Q1234.27 737.091 1237 737.924 Q1239.75 738.735 1242.16 740.378 Z" fill="#000000" fill-rule="evenodd" fill-opacity="1" /><path clip-path="url(#clip310)" d="M 0 0 M1256.67 749.336 Q1253.25 749.336 1251.26 752.022 Q1249.27 754.684 1249.27 759.336 Q1249.27 763.989 1251.23 766.674 Q1253.22 769.336 1256.67 769.336 Q1260.08 769.336 1262.07 766.651 Q1264.06 763.966 1264.06 759.336 Q1264.06 754.73 1262.07 752.045 Q1260.08 749.336 1256.67 749.336 M1256.67 745.725 Q1262.23 745.725 1265.4 749.336 Q1268.57 752.948 1268.57 759.336 Q1268.57 765.702 1265.4 769.336 Q1262.23 772.947 1256.67 772.947 Q1251.1 772.947 1247.92 769.336 Q1244.78 765.702 1244.78 759.336 Q1244.78 752.948 1247.92 749.336 Q1251.1 745.725 1256.67 745.725 Z" fill="#000000" fill-rule="evenodd" fill-opacity="1" /><path clip-path="url(#clip310)" d="M 0 0 M1294.59 756.628 L1294.59 772.276 L1290.33 772.276 L1290.33 756.767 Q1290.33 753.086 1288.9 751.258 Q1287.46 749.429 1284.59 749.429 Q1281.14 749.429 1279.15 751.628 Q1277.16 753.827 1277.16 757.623 L1277.16 772.276 L1272.88 772.276 L1272.88 746.35 L1277.16 746.35 L1277.16 750.378 Q1278.69 748.04 1280.75 746.883 Q1282.83 745.725 1285.54 745.725 Q1290.01 745.725 1292.3 748.503 Q1294.59 751.258 1294.59 756.628 Z" fill="#000000" fill-rule="evenodd" fill-opacity="1" /><path clip-path="url(#clip310)" d="M 0 0 M1315.59 747.114 L1315.59 751.142 Q1313.78 750.216 1311.84 749.753 Q1309.89 749.29 1307.81 749.29 Q1304.64 749.29 1303.04 750.262 Q1301.47 751.235 1301.47 753.179 Q1301.47 754.66 1302.6 755.517 Q1303.73 756.35 1307.16 757.114 L1308.62 757.438 Q1313.16 758.41 1315.05 760.193 Q1316.97 761.952 1316.97 765.123 Q1316.97 768.734 1314.1 770.841 Q1311.26 772.947 1306.26 772.947 Q1304.17 772.947 1301.91 772.531 Q1299.66 772.137 1297.16 771.327 L1297.16 766.929 Q1299.52 768.156 1301.81 768.781 Q1304.1 769.383 1306.35 769.383 Q1309.36 769.383 1310.98 768.364 Q1312.6 767.322 1312.6 765.447 Q1312.6 763.711 1311.42 762.785 Q1310.26 761.86 1306.3 761.003 L1304.82 760.656 Q1300.86 759.822 1299.1 758.11 Q1297.35 756.373 1297.35 753.364 Q1297.35 749.707 1299.94 747.716 Q1302.53 745.725 1307.3 745.725 Q1309.66 745.725 1311.74 746.073 Q1313.83 746.42 1315.59 747.114 Z" fill="#000000" fill-rule="evenodd" fill-opacity="1" /><path clip-path="url(#clip310)" d="M 0 0 M1325.66 738.989 L1325.66 746.35 L1334.43 746.35 L1334.43 749.661 L1325.66 749.661 L1325.66 763.735 Q1325.66 766.906 1326.51 767.809 Q1327.39 768.711 1330.05 768.711 L1334.43 768.711 L1334.43 772.276 L1330.05 772.276 Q1325.12 772.276 1323.25 770.447 Q1321.37 768.596 1321.37 763.735 L1321.37 749.661 L1318.25 749.661 L1318.25 746.35 L1321.37 746.35 L1321.37 738.989 L1325.66 738.989 Z" fill="#000000" fill-rule="evenodd" fill-opacity="1" /><path clip-path="url(#clip310)" d="M 0 0 M1353.92 750.332 Q1353.2 749.915 1352.34 749.73 Q1351.51 749.522 1350.49 749.522 Q1346.88 749.522 1344.94 751.883 Q1343.02 754.221 1343.02 758.619 L1343.02 772.276 L1338.73 772.276 L1338.73 746.35 L1343.02 746.35 L1343.02 750.378 Q1344.36 748.017 1346.51 746.883 Q1348.66 745.725 1351.74 745.725 Q1352.18 745.725 1352.72 745.795 Q1353.25 745.841 1353.9 745.957 L1353.92 750.332 Z" fill="#000000" fill-rule="evenodd" fill-opacity="1" /><path clip-path="url(#clip310)" d="M 0 0 M1370.17 759.244 Q1365.01 759.244 1363.02 760.424 Q1361.03 761.605 1361.03 764.452 Q1361.03 766.721 1362.51 768.063 Q1364.01 769.383 1366.58 769.383 Q1370.12 769.383 1372.25 766.883 Q1374.4 764.36 1374.4 760.193 L1374.4 759.244 L1370.17 759.244 M1378.66 757.485 L1378.66 772.276 L1374.4 772.276 L1374.4 768.341 Q1372.95 770.702 1370.77 771.836 Q1368.59 772.947 1365.45 772.947 Q1361.47 772.947 1359.1 770.725 Q1356.77 768.48 1356.77 764.73 Q1356.77 760.355 1359.68 758.133 Q1362.62 755.91 1368.43 755.91 L1374.4 755.91 L1374.4 755.494 Q1374.4 752.554 1372.46 750.957 Q1370.54 749.336 1367.04 749.336 Q1364.82 749.336 1362.72 749.869 Q1360.61 750.401 1358.66 751.466 L1358.66 747.531 Q1361 746.628 1363.2 746.188 Q1365.4 745.725 1367.48 745.725 Q1373.11 745.725 1375.89 748.642 Q1378.66 751.559 1378.66 757.485 Z" fill="#000000" fill-rule="evenodd" fill-opacity="1" /><path clip-path="url(#clip310)" d="M 0 0 M1383.13 746.35 L1387.39 746.35 L1387.39 772.276 L1383.13 772.276 L1383.13 746.35 M1383.13 736.258 L1387.39 736.258 L1387.39 741.651 L1383.13 741.651 L1383.13 736.258 Z" fill="#000000" fill-rule="evenodd" fill-opacity="1" /><path clip-path="url(#clip310)" d="M 0 0 M1413.41 756.628 L1413.41 772.276 L1409.15 772.276 L1409.15 756.767 Q1409.15 753.086 1407.71 751.258 Q1406.28 749.429 1403.41 749.429 Q1399.96 749.429 1397.97 751.628 Q1395.98 753.827 1395.98 757.623 L1395.98 772.276 L1391.7 772.276 L1391.7 746.35 L1395.98 746.35 L1395.98 750.378 Q1397.51 748.04 1399.57 746.883 Q1401.65 745.725 1404.36 745.725 Q1408.83 745.725 1411.12 748.503 Q1413.41 751.258 1413.41 756.628 Z" fill="#000000" fill-rule="evenodd" fill-opacity="1" /><path clip-path="url(#clip310)" d="M 0 0 M1422.09 738.989 L1422.09 746.35 L1430.86 746.35 L1430.86 749.661 L1422.09 749.661 L1422.09 763.735 Q1422.09 766.906 1422.95 767.809 Q1423.83 768.711 1426.49 768.711 L1430.86 768.711 L1430.86 772.276 L1426.49 772.276 Q1421.56 772.276 1419.68 770.447 Q1417.81 768.596 1417.81 763.735 L1417.81 749.661 L1414.68 749.661 L1414.68 746.35 L1417.81 746.35 L1417.81 738.989 L1422.09 738.989 Z" fill="#000000" fill-rule="evenodd" fill-opacity="1" /><path clip-path="url(#clip310)" d="M 0 0 M1451.86 747.114 L1451.86 751.142 Q1450.05 750.216 1448.11 749.753 Q1446.16 749.29 1444.08 749.29 Q1440.91 749.29 1439.31 750.262 Q1437.74 751.235 1437.74 753.179 Q1437.74 754.66 1438.87 755.517 Q1440.01 756.35 1443.43 757.114 L1444.89 757.438 Q1449.43 758.41 1451.33 760.193 Q1453.25 761.952 1453.25 765.123 Q1453.25 768.734 1450.38 770.841 Q1447.53 772.947 1442.53 772.947 Q1440.45 772.947 1438.18 772.531 Q1435.93 772.137 1433.43 771.327 L1433.43 766.929 Q1435.79 768.156 1438.09 768.781 Q1440.38 769.383 1442.62 769.383 Q1445.63 769.383 1447.25 768.364 Q1448.87 767.322 1448.87 765.447 Q1448.87 763.711 1447.69 762.785 Q1446.53 761.86 1442.58 761.003 L1441.09 760.656 Q1437.14 759.822 1435.38 758.11 Q1433.62 756.373 1433.62 753.364 Q1433.62 749.707 1436.21 747.716 Q1438.8 745.725 1443.57 745.725 Q1445.93 745.725 1448.02 746.073 Q1450.1 746.42 1451.86 747.114 Z" fill="#000000" fill-rule="evenodd" fill-opacity="1" /><path clip-path="url(#clip310)" d="M 0 0 M997.483 1549.68 L997.483 1562.67 L1003.36 1562.67 Q1006.63 1562.67 1008.41 1560.98 Q1010.19 1559.29 1010.19 1556.16 Q1010.19 1553.06 1008.41 1551.37 Q1006.63 1549.68 1003.36 1549.68 L997.483 1549.68 M992.807 1545.84 L1003.36 1545.84 Q1009.17 1545.84 1012.14 1548.48 Q1015.12 1551.09 1015.12 1556.16 Q1015.12 1561.28 1012.14 1563.89 Q1009.17 1566.51 1003.36 1566.51 L997.483 1566.51 L997.483 1580.4 L992.807 1580.4 L992.807 1545.84 Z" fill="#000000" fill-rule="evenodd" fill-opacity="1" /><path clip-path="url(#clip310)" d="M 0 0 M1040.08 1566.37 L1040.08 1568.45 L1020.49 1568.45 Q1020.77 1572.85 1023.13 1575.17 Q1025.52 1577.46 1029.75 1577.46 Q1032.21 1577.46 1034.5 1576.86 Q1036.81 1576.25 1039.08 1575.05 L1039.08 1579.08 Q1036.79 1580.05 1034.38 1580.56 Q1031.97 1581.07 1029.5 1581.07 Q1023.29 1581.07 1019.66 1577.46 Q1016.05 1573.85 1016.05 1567.69 Q1016.05 1561.32 1019.47 1557.6 Q1022.92 1553.85 1028.76 1553.85 Q1033.99 1553.85 1037.02 1557.23 Q1040.08 1560.58 1040.08 1566.37 M1035.82 1565.12 Q1035.77 1561.62 1033.85 1559.54 Q1031.95 1557.46 1028.8 1557.46 Q1025.24 1557.46 1023.08 1559.47 Q1020.96 1561.48 1020.63 1565.14 L1035.82 1565.12 Z" fill="#000000" fill-rule="evenodd" fill-opacity="1" /><path clip-path="url(#clip310)" d="M 0 0 M1059.57 1558.45 Q1058.85 1558.04 1057.99 1557.85 Q1057.16 1557.64 1056.14 1557.64 Q1052.53 1557.64 1050.58 1560 Q1048.66 1562.34 1048.66 1566.74 L1048.66 1580.4 L1044.38 1580.4 L1044.38 1554.47 L1048.66 1554.47 L1048.66 1558.5 Q1050.01 1556.14 1052.16 1555 Q1054.31 1553.85 1057.39 1553.85 Q1057.83 1553.85 1058.36 1553.92 Q1058.89 1553.96 1059.54 1554.08 L1059.57 1558.45 Z" fill="#000000" fill-rule="evenodd" fill-opacity="1" /><path clip-path="url(#clip310)" d="M 0 0 M1077.16 1544.38 L1077.16 1547.92 L1073.08 1547.92 Q1070.79 1547.92 1069.89 1548.85 Q1069.01 1549.77 1069.01 1552.18 L1069.01 1554.47 L1076.02 1554.47 L1076.02 1557.78 L1069.01 1557.78 L1069.01 1580.4 L1064.73 1580.4 L1064.73 1557.78 L1060.65 1557.78 L1060.65 1554.47 L1064.73 1554.47 L1064.73 1552.67 Q1064.73 1548.34 1066.74 1546.37 Q1068.76 1544.38 1073.13 1544.38 L1077.16 1544.38 Z" fill="#000000" fill-rule="evenodd" fill-opacity="1" /><path clip-path="url(#clip310)" d="M 0 0 M1091.67 1557.46 Q1088.25 1557.46 1086.26 1560.14 Q1084.26 1562.8 1084.26 1567.46 Q1084.26 1572.11 1086.23 1574.79 Q1088.22 1577.46 1091.67 1577.46 Q1095.08 1577.46 1097.07 1574.77 Q1099.06 1572.09 1099.06 1567.46 Q1099.06 1562.85 1097.07 1560.17 Q1095.08 1557.46 1091.67 1557.46 M1091.67 1553.85 Q1097.23 1553.85 1100.4 1557.46 Q1103.57 1561.07 1103.57 1567.46 Q1103.57 1573.82 1100.4 1577.46 Q1097.23 1581.07 1091.67 1581.07 Q1086.09 1581.07 1082.92 1577.46 Q1079.77 1573.82 1079.77 1567.46 Q1079.77 1561.07 1082.92 1557.46 Q1086.09 1553.85 1091.67 1553.85 Z" fill="#000000" fill-rule="evenodd" fill-opacity="1" /><path clip-path="url(#clip310)" d="M 0 0 M1123.06 1558.45 Q1122.34 1558.04 1121.49 1557.85 Q1120.65 1557.64 1119.64 1557.64 Q1116.02 1557.64 1114.08 1560 Q1112.16 1562.34 1112.16 1566.74 L1112.16 1580.4 L1107.88 1580.4 L1107.88 1554.47 L1112.16 1554.47 L1112.16 1558.5 Q1113.5 1556.14 1115.65 1555 Q1117.81 1553.85 1120.89 1553.85 Q1121.32 1553.85 1121.86 1553.92 Q1122.39 1553.96 1123.04 1554.08 L1123.06 1558.45 Z" fill="#000000" fill-rule="evenodd" fill-opacity="1" /><path clip-path="url(#clip310)" d="M 0 0 M1146.88 1559.45 Q1148.48 1556.58 1150.7 1555.21 Q1152.92 1553.85 1155.93 1553.85 Q1159.98 1553.85 1162.18 1556.69 Q1164.38 1559.52 1164.38 1564.75 L1164.38 1580.4 L1160.1 1580.4 L1160.1 1564.89 Q1160.1 1561.16 1158.78 1559.36 Q1157.46 1557.55 1154.75 1557.55 Q1151.44 1557.55 1149.52 1559.75 Q1147.6 1561.95 1147.6 1565.74 L1147.6 1580.4 L1143.32 1580.4 L1143.32 1564.89 Q1143.32 1561.14 1142 1559.36 Q1140.68 1557.55 1137.92 1557.55 Q1134.66 1557.55 1132.74 1559.77 Q1130.82 1561.97 1130.82 1565.74 L1130.82 1580.4 L1126.53 1580.4 L1126.53 1554.47 L1130.82 1554.47 L1130.82 1558.5 Q1132.27 1556.11 1134.31 1554.98 Q1136.35 1553.85 1139.15 1553.85 Q1141.97 1553.85 1143.94 1555.28 Q1145.93 1556.72 1146.88 1559.45 Z" fill="#000000" fill-rule="evenodd" fill-opacity="1" /><path clip-path="url(#clip310)" d="M 0 0 M1180.63 1567.36 Q1175.47 1567.36 1173.48 1568.54 Q1171.49 1569.73 1171.49 1572.57 Q1171.49 1574.84 1172.97 1576.18 Q1174.47 1577.5 1177.04 1577.5 Q1180.58 1577.5 1182.71 1575 Q1184.87 1572.48 1184.87 1568.31 L1184.87 1567.36 L1180.63 1567.36 M1189.13 1565.61 L1189.13 1580.4 L1184.87 1580.4 L1184.87 1576.46 Q1183.41 1578.82 1181.23 1579.96 Q1179.06 1581.07 1175.91 1581.07 Q1171.93 1581.07 1169.57 1578.85 Q1167.23 1576.6 1167.23 1572.85 Q1167.23 1568.48 1170.14 1566.25 Q1173.08 1564.03 1178.89 1564.03 L1184.87 1564.03 L1184.87 1563.61 Q1184.87 1560.67 1182.92 1559.08 Q1181 1557.46 1177.51 1557.46 Q1175.28 1557.46 1173.18 1557.99 Q1171.07 1558.52 1169.13 1559.59 L1169.13 1555.65 Q1171.46 1554.75 1173.66 1554.31 Q1175.86 1553.85 1177.94 1553.85 Q1183.57 1553.85 1186.35 1556.76 Q1189.13 1559.68 1189.13 1565.61 Z" fill="#000000" fill-rule="evenodd" fill-opacity="1" /><path clip-path="url(#clip310)" d="M 0 0 M1215.14 1564.75 L1215.14 1580.4 L1210.88 1580.4 L1210.88 1564.89 Q1210.88 1561.21 1209.45 1559.38 Q1208.01 1557.55 1205.14 1557.55 Q1201.69 1557.55 1199.7 1559.75 Q1197.71 1561.95 1197.71 1565.74 L1197.71 1580.4 L1193.43 1580.4 L1193.43 1554.47 L1197.71 1554.47 L1197.71 1558.5 Q1199.24 1556.16 1201.3 1555 Q1203.38 1553.85 1206.09 1553.85 Q1210.56 1553.85 1212.85 1556.62 Q1215.14 1559.38 1215.14 1564.75 Z" fill="#000000" fill-rule="evenodd" fill-opacity="1" /><path clip-path="url(#clip310)" d="M 0 0 M1238.27 1555.47 L1238.27 1559.45 Q1236.46 1558.45 1234.63 1557.97 Q1232.83 1557.46 1230.98 1557.46 Q1226.83 1557.46 1224.54 1560.1 Q1222.25 1562.71 1222.25 1567.46 Q1222.25 1572.2 1224.54 1574.84 Q1226.83 1577.46 1230.98 1577.46 Q1232.83 1577.46 1234.63 1576.97 Q1236.46 1576.46 1238.27 1575.47 L1238.27 1579.4 Q1236.49 1580.23 1234.57 1580.65 Q1232.67 1581.07 1230.51 1581.07 Q1224.66 1581.07 1221.21 1577.39 Q1217.76 1573.71 1217.76 1567.46 Q1217.76 1561.11 1221.23 1557.48 Q1224.73 1553.85 1230.79 1553.85 Q1232.76 1553.85 1234.63 1554.26 Q1236.51 1554.66 1238.27 1555.47 Z" fill="#000000" fill-rule="evenodd" fill-opacity="1" /><path clip-path="url(#clip310)" d="M 0 0 M1264.91 1566.37 L1264.91 1568.45 L1245.33 1568.45 Q1245.61 1572.85 1247.97 1575.17 Q1250.35 1577.46 1254.59 1577.46 Q1257.04 1577.46 1259.33 1576.86 Q1261.65 1576.25 1263.92 1575.05 L1263.92 1579.08 Q1261.63 1580.05 1259.22 1580.56 Q1256.81 1581.07 1254.33 1581.07 Q1248.13 1581.07 1244.5 1577.46 Q1240.88 1573.85 1240.88 1567.69 Q1240.88 1561.32 1244.31 1557.6 Q1247.76 1553.85 1253.59 1553.85 Q1258.82 1553.85 1261.86 1557.23 Q1264.91 1560.58 1264.91 1566.37 M1260.65 1565.12 Q1260.61 1561.62 1258.69 1559.54 Q1256.79 1557.46 1253.64 1557.46 Q1250.07 1557.46 1247.92 1559.47 Q1245.79 1561.48 1245.47 1565.14 L1260.65 1565.12 Z" fill="#000000" fill-rule="evenodd" fill-opacity="1" /><path clip-path="url(#clip310)" d="M 0 0 M1289.08 1588.27 L1289.08 1591.58 L1264.45 1591.58 L1264.45 1588.27 L1289.08 1588.27 Z" fill="#000000" fill-rule="evenodd" fill-opacity="1" /><path clip-path="url(#clip310)" d="M 0 0 M1298.41 1549.68 L1298.41 1562.67 L1304.29 1562.67 Q1307.55 1562.67 1309.33 1560.98 Q1311.12 1559.29 1311.12 1556.16 Q1311.12 1553.06 1309.33 1551.37 Q1307.55 1549.68 1304.29 1549.68 L1298.41 1549.68 M1293.73 1545.84 L1304.29 1545.84 Q1310.1 1545.84 1313.06 1548.48 Q1316.05 1551.09 1316.05 1556.16 Q1316.05 1561.28 1313.06 1563.89 Q1310.1 1566.51 1304.29 1566.51 L1298.41 1566.51 L1298.41 1580.4 L1293.73 1580.4 L1293.73 1545.84 Z" fill="#000000" fill-rule="evenodd" fill-opacity="1" /><path clip-path="url(#clip310)" d="M 0 0 M1330.17 1567.36 Q1325 1567.36 1323.01 1568.54 Q1321.02 1569.73 1321.02 1572.57 Q1321.02 1574.84 1322.5 1576.18 Q1324.01 1577.5 1326.58 1577.5 Q1330.12 1577.5 1332.25 1575 Q1334.4 1572.48 1334.4 1568.31 L1334.4 1567.36 L1330.17 1567.36 M1338.66 1565.61 L1338.66 1580.4 L1334.4 1580.4 L1334.4 1576.46 Q1332.94 1578.82 1330.77 1579.96 Q1328.59 1581.07 1325.44 1581.07 Q1321.46 1581.07 1319.1 1578.85 Q1316.76 1576.6 1316.76 1572.85 Q1316.76 1568.48 1319.68 1566.25 Q1322.62 1564.03 1328.43 1564.03 L1334.4 1564.03 L1334.4 1563.61 Q1334.4 1560.67 1332.46 1559.08 Q1330.54 1557.46 1327.04 1557.46 Q1324.82 1557.46 1322.71 1557.99 Q1320.61 1558.52 1318.66 1559.59 L1318.66 1555.65 Q1321 1554.75 1323.2 1554.31 Q1325.4 1553.85 1327.48 1553.85 Q1333.11 1553.85 1335.88 1556.76 Q1338.66 1559.68 1338.66 1565.61 Z" fill="#000000" fill-rule="evenodd" fill-opacity="1" /><path clip-path="url(#clip310)" d="M 0 0 M1358.15 1558.45 Q1357.43 1558.04 1356.58 1557.85 Q1355.74 1557.64 1354.73 1557.64 Q1351.12 1557.64 1349.17 1560 Q1347.25 1562.34 1347.25 1566.74 L1347.25 1580.4 L1342.97 1580.4 L1342.97 1554.47 L1347.25 1554.47 L1347.25 1558.5 Q1348.59 1556.14 1350.74 1555 Q1352.9 1553.85 1355.98 1553.85 Q1356.42 1553.85 1356.95 1553.92 Q1357.48 1553.96 1358.13 1554.08 L1358.15 1558.45 Z" fill="#000000" fill-rule="evenodd" fill-opacity="1" /><path clip-path="url(#clip310)" d="M 0 0 M1374.4 1567.36 Q1369.24 1567.36 1367.25 1568.54 Q1365.26 1569.73 1365.26 1572.57 Q1365.26 1574.84 1366.74 1576.18 Q1368.24 1577.5 1370.81 1577.5 Q1374.36 1577.5 1376.49 1575 Q1378.64 1572.48 1378.64 1568.31 L1378.64 1567.36 L1374.4 1567.36 M1382.9 1565.61 L1382.9 1580.4 L1378.64 1580.4 L1378.64 1576.46 Q1377.18 1578.82 1375 1579.96 Q1372.83 1581.07 1369.68 1581.07 Q1365.7 1581.07 1363.34 1578.85 Q1361 1576.6 1361 1572.85 Q1361 1568.48 1363.92 1566.25 Q1366.86 1564.03 1372.67 1564.03 L1378.64 1564.03 L1378.64 1563.61 Q1378.64 1560.67 1376.69 1559.08 Q1374.77 1557.46 1371.28 1557.46 Q1369.06 1557.46 1366.95 1557.99 Q1364.84 1558.52 1362.9 1559.59 L1362.9 1555.65 Q1365.24 1554.75 1367.43 1554.31 Q1369.63 1553.85 1371.72 1553.85 Q1377.34 1553.85 1380.12 1556.76 Q1382.9 1559.68 1382.9 1565.61 Z" fill="#000000" fill-rule="evenodd" fill-opacity="1" /><path clip-path="url(#clip310)" d="M 0 0 M1407.55 1559.45 Q1409.15 1556.58 1411.37 1555.21 Q1413.59 1553.85 1416.6 1553.85 Q1420.65 1553.85 1422.85 1556.69 Q1425.05 1559.52 1425.05 1564.75 L1425.05 1580.4 L1420.77 1580.4 L1420.77 1564.89 Q1420.77 1561.16 1419.45 1559.36 Q1418.13 1557.55 1415.42 1557.55 Q1412.11 1557.55 1410.19 1559.75 Q1408.27 1561.95 1408.27 1565.74 L1408.27 1580.4 L1403.99 1580.4 L1403.99 1564.89 Q1403.99 1561.14 1402.67 1559.36 Q1401.35 1557.55 1398.59 1557.55 Q1395.33 1557.55 1393.41 1559.77 Q1391.49 1561.97 1391.49 1565.74 L1391.49 1580.4 L1387.2 1580.4 L1387.2 1554.47 L1391.49 1554.47 L1391.49 1558.5 Q1392.94 1556.11 1394.98 1554.98 Q1397.02 1553.85 1399.82 1553.85 Q1402.64 1553.85 1404.61 1555.28 Q1406.6 1556.72 1407.55 1559.45 Z" fill="#000000" fill-rule="evenodd" fill-opacity="1" /><path clip-path="url(#clip310)" d="M 0 0 M1451.69 1566.37 L1451.69 1568.45 L1432.11 1568.45 Q1432.39 1572.85 1434.75 1575.17 Q1437.13 1577.46 1441.37 1577.46 Q1443.82 1577.46 1446.11 1576.86 Q1448.43 1576.25 1450.7 1575.05 L1450.7 1579.08 Q1448.41 1580.05 1446 1580.56 Q1443.59 1581.07 1441.11 1581.07 Q1434.91 1581.07 1431.28 1577.46 Q1427.67 1573.85 1427.67 1567.69 Q1427.67 1561.32 1431.09 1557.6 Q1434.54 1553.85 1440.37 1553.85 Q1445.61 1553.85 1448.64 1557.23 Q1451.69 1560.58 1451.69 1566.37 M1447.43 1565.12 Q1447.39 1561.62 1445.47 1559.54 Q1443.57 1557.46 1440.42 1557.46 Q1436.86 1557.46 1434.7 1559.47 Q1432.57 1561.48 1432.25 1565.14 L1447.43 1565.12 Z" fill="#000000" fill-rule="evenodd" fill-opacity="1" /><path clip-path="url(#clip310)" d="M 0 0 M1460.37 1547.11 L1460.37 1554.47 L1469.15 1554.47 L1469.15 1557.78 L1460.37 1557.78 L1460.37 1571.86 Q1460.37 1575.03 1461.23 1575.93 Q1462.11 1576.83 1464.77 1576.83 L1469.15 1576.83 L1469.15 1580.4 L1464.77 1580.4 Q1459.84 1580.4 1457.97 1578.57 Q1456.09 1576.72 1456.09 1571.86 L1456.09 1557.78 L1452.97 1557.78 L1452.97 1554.47 L1456.09 1554.47 L1456.09 1547.11 L1460.37 1547.11 Z" fill="#000000" fill-rule="evenodd" fill-opacity="1" /><path clip-path="url(#clip310)" d="M 0 0 M1495.79 1566.37 L1495.79 1568.45 L1476.21 1568.45 Q1476.49 1572.85 1478.85 1575.17 Q1481.23 1577.46 1485.47 1577.46 Q1487.92 1577.46 1490.21 1576.86 Q1492.53 1576.25 1494.8 1575.05 L1494.8 1579.08 Q1492.5 1580.05 1490.1 1580.56 Q1487.69 1581.07 1485.21 1581.07 Q1479.01 1581.07 1475.37 1577.46 Q1471.76 1573.85 1471.76 1567.69 Q1471.76 1561.32 1475.19 1557.6 Q1478.64 1553.85 1484.47 1553.85 Q1489.7 1553.85 1492.73 1557.23 Q1495.79 1560.58 1495.79 1566.37 M1491.53 1565.12 Q1491.48 1561.62 1489.56 1559.54 Q1487.67 1557.46 1484.52 1557.46 Q1480.95 1557.46 1478.8 1559.47 Q1476.67 1561.48 1476.35 1565.14 L1491.53 1565.12 Z" fill="#000000" fill-rule="evenodd" fill-opacity="1" /><path clip-path="url(#clip310)" d="M 0 0 M1515.28 1558.45 Q1514.56 1558.04 1513.71 1557.85 Q1512.87 1557.64 1511.86 1557.64 Q1508.24 1557.64 1506.3 1560 Q1504.38 1562.34 1504.38 1566.74 L1504.38 1580.4 L1500.1 1580.4 L1500.1 1554.47 L1504.38 1554.47 L1504.38 1558.5 Q1505.72 1556.14 1507.87 1555 Q1510.03 1553.85 1513.11 1553.85 Q1513.55 1553.85 1514.08 1553.92 Q1514.61 1553.96 1515.26 1554.08 L1515.28 1558.45 Z" fill="#000000" fill-rule="evenodd" fill-opacity="1" /><path clip-path="url(#clip310)" d="M 0 0 M1536.28 1555.23 L1536.28 1559.26 Q1534.47 1558.34 1532.53 1557.87 Q1530.58 1557.41 1528.5 1557.41 Q1525.33 1557.41 1523.73 1558.38 Q1522.16 1559.36 1522.16 1561.3 Q1522.16 1562.78 1523.29 1563.64 Q1524.42 1564.47 1527.85 1565.23 L1529.31 1565.56 Q1533.85 1566.53 1535.74 1568.31 Q1537.67 1570.07 1537.67 1573.24 Q1537.67 1576.86 1534.79 1578.96 Q1531.95 1581.07 1526.95 1581.07 Q1524.86 1581.07 1522.6 1580.65 Q1520.35 1580.26 1517.85 1579.45 L1517.85 1575.05 Q1520.21 1576.28 1522.5 1576.9 Q1524.79 1577.5 1527.04 1577.5 Q1530.05 1577.5 1531.67 1576.48 Q1533.29 1575.44 1533.29 1573.57 Q1533.29 1571.83 1532.11 1570.91 Q1530.95 1569.98 1526.99 1569.12 L1525.51 1568.78 Q1521.55 1567.94 1519.79 1566.23 Q1518.04 1564.49 1518.04 1561.48 Q1518.04 1557.83 1520.63 1555.84 Q1523.22 1553.85 1527.99 1553.85 Q1530.35 1553.85 1532.43 1554.19 Q1534.52 1554.54 1536.28 1555.23 Z" fill="#000000" fill-rule="evenodd" fill-opacity="1" /><path clip-path="url(#clip310)" d="M 0 0 M366.869 1309.6 L366.869 1314.53 Q364.508 1312.33 361.823 1311.24 Q359.161 1310.15 356.152 1310.15 Q350.226 1310.15 347.078 1313.79 Q343.929 1317.4 343.929 1324.25 Q343.929 1331.08 347.078 1334.71 Q350.226 1338.33 356.152 1338.33 Q359.161 1338.33 361.823 1337.24 Q364.508 1336.15 366.869 1333.95 L366.869 1338.84 Q364.415 1340.5 361.661 1341.34 Q358.929 1342.17 355.874 1342.17 Q348.027 1342.17 343.513 1337.38 Q338.999 1332.56 338.999 1324.25 Q338.999 1315.92 343.513 1311.13 Q348.027 1306.31 355.874 1306.31 Q358.976 1306.31 361.707 1307.15 Q364.462 1307.96 366.869 1309.6 Z" fill="#000000" fill-rule="evenodd" fill-opacity="1" /><path clip-path="url(#clip310)" d="M 0 0 M371.337 1305.48 L375.596 1305.48 L375.596 1341.5 L371.337 1341.5 L371.337 1305.48 Z" fill="#000000" fill-rule="evenodd" fill-opacity="1" /><path clip-path="url(#clip310)" d="M 0 0 M380.063 1315.57 L384.323 1315.57 L384.323 1341.5 L380.063 1341.5 L380.063 1315.57 M380.063 1305.48 L384.323 1305.48 L384.323 1310.87 L380.063 1310.87 L380.063 1305.48 Z" fill="#000000" fill-rule="evenodd" fill-opacity="1" /><path clip-path="url(#clip310)" d="M 0 0 M410.966 1327.47 L410.966 1329.55 L391.383 1329.55 Q391.661 1333.95 394.022 1336.27 Q396.406 1338.56 400.642 1338.56 Q403.096 1338.56 405.387 1337.96 Q407.702 1337.35 409.971 1336.15 L409.971 1340.18 Q407.679 1341.15 405.272 1341.66 Q402.864 1342.17 400.387 1342.17 Q394.184 1342.17 390.55 1338.56 Q386.938 1334.95 386.938 1328.79 Q386.938 1322.42 390.364 1318.7 Q393.813 1314.95 399.647 1314.95 Q404.878 1314.95 407.911 1318.33 Q410.966 1321.68 410.966 1327.47 M406.707 1326.22 Q406.661 1322.72 404.739 1320.64 Q402.841 1318.56 399.693 1318.56 Q396.128 1318.56 393.975 1320.57 Q391.846 1322.59 391.522 1326.24 L406.707 1326.22 Z" fill="#000000" fill-rule="evenodd" fill-opacity="1" /><path clip-path="url(#clip310)" d="M 0 0 M436.984 1325.85 L436.984 1341.5 L432.725 1341.5 L432.725 1325.99 Q432.725 1322.31 431.29 1320.48 Q429.855 1318.65 426.985 1318.65 Q423.535 1318.65 421.545 1320.85 Q419.554 1323.05 419.554 1326.84 L419.554 1341.5 L415.272 1341.5 L415.272 1315.57 L419.554 1315.57 L419.554 1319.6 Q421.082 1317.26 423.142 1316.1 Q425.225 1314.95 427.934 1314.95 Q432.401 1314.95 434.693 1317.72 Q436.984 1320.48 436.984 1325.85 Z" fill="#000000" fill-rule="evenodd" fill-opacity="1" /><path clip-path="url(#clip310)" d="M 0 0 M445.665 1308.21 L445.665 1315.57 L454.438 1315.57 L454.438 1318.88 L445.665 1318.88 L445.665 1332.96 Q445.665 1336.13 446.521 1337.03 Q447.401 1337.93 450.063 1337.93 L454.438 1337.93 L454.438 1341.5 L450.063 1341.5 Q445.133 1341.5 443.258 1339.67 Q441.383 1337.82 441.383 1332.96 L441.383 1318.88 L438.258 1318.88 L438.258 1315.57 L441.383 1315.57 L441.383 1308.21 L445.665 1308.21 Z" fill="#000000" fill-rule="evenodd" fill-opacity="1" /><path clip-path="url(#clip310)" d="M 0 0 M478.605 1349.37 L478.605 1352.68 L453.975 1352.68 L453.975 1349.37 L478.605 1349.37 Z" fill="#000000" fill-rule="evenodd" fill-opacity="1" /><path clip-path="url(#clip310)" d="M 0 0 M494.855 1328.46 Q489.693 1328.46 487.702 1329.65 Q485.711 1330.83 485.711 1333.67 Q485.711 1335.94 487.193 1337.28 Q488.697 1338.6 491.267 1338.6 Q494.808 1338.6 496.938 1336.1 Q499.091 1333.58 499.091 1329.41 L499.091 1328.46 L494.855 1328.46 M503.35 1326.71 L503.35 1341.5 L499.091 1341.5 L499.091 1337.56 Q497.632 1339.92 495.456 1341.06 Q493.28 1342.17 490.132 1342.17 Q486.151 1342.17 483.79 1339.95 Q481.452 1337.7 481.452 1333.95 Q481.452 1329.58 484.368 1327.35 Q487.308 1325.13 493.118 1325.13 L499.091 1325.13 L499.091 1324.71 Q499.091 1321.78 497.146 1320.18 Q495.225 1318.56 491.73 1318.56 Q489.507 1318.56 487.401 1319.09 Q485.294 1319.62 483.35 1320.69 L483.35 1316.75 Q485.688 1315.85 487.887 1315.41 Q490.086 1314.95 492.169 1314.95 Q497.794 1314.95 500.572 1317.86 Q503.35 1320.78 503.35 1326.71 Z" fill="#000000" fill-rule="evenodd" fill-opacity="1" /><path clip-path="url(#clip310)" d="M 0 0 M529.368 1325.85 L529.368 1341.5 L525.109 1341.5 L525.109 1325.99 Q525.109 1322.31 523.674 1320.48 Q522.239 1318.65 519.368 1318.65 Q515.919 1318.65 513.928 1320.85 Q511.938 1323.05 511.938 1326.84 L511.938 1341.5 L507.655 1341.5 L507.655 1315.57 L511.938 1315.57 L511.938 1319.6 Q513.466 1317.26 515.526 1316.1 Q517.609 1314.95 520.317 1314.95 Q524.785 1314.95 527.077 1317.72 Q529.368 1320.48 529.368 1325.85 Z" fill="#000000" fill-rule="evenodd" fill-opacity="1" /><path clip-path="url(#clip310)" d="M 0 0 M550.896 1319.51 L550.896 1305.48 L555.155 1305.48 L555.155 1341.5 L550.896 1341.5 L550.896 1337.61 Q549.553 1339.92 547.493 1341.06 Q545.456 1342.17 542.586 1342.17 Q537.887 1342.17 534.924 1338.42 Q531.984 1334.67 531.984 1328.56 Q531.984 1322.45 534.924 1318.7 Q537.887 1314.95 542.586 1314.95 Q545.456 1314.95 547.493 1316.08 Q549.553 1317.19 550.896 1319.51 M536.382 1328.56 Q536.382 1333.26 538.303 1335.94 Q540.248 1338.6 543.627 1338.6 Q547.007 1338.6 548.951 1335.94 Q550.896 1333.26 550.896 1328.56 Q550.896 1323.86 548.951 1321.2 Q547.007 1318.51 543.627 1318.51 Q540.248 1318.51 538.303 1321.2 Q536.382 1323.86 536.382 1328.56 Z" fill="#000000" fill-rule="evenodd" fill-opacity="1" /><path clip-path="url(#clip310)" d="M 0 0 M579.322 1349.37 L579.322 1352.68 L554.692 1352.68 L554.692 1349.37 L579.322 1349.37 Z" fill="#000000" fill-rule="evenodd" fill-opacity="1" /><path clip-path="url(#clip310)" d="M 0 0 M609.854 1309.6 L609.854 1314.53 Q607.493 1312.33 604.808 1311.24 Q602.146 1310.15 599.136 1310.15 Q593.21 1310.15 590.062 1313.79 Q586.914 1317.4 586.914 1324.25 Q586.914 1331.08 590.062 1334.71 Q593.21 1338.33 599.136 1338.33 Q602.146 1338.33 604.808 1337.24 Q607.493 1336.15 609.854 1333.95 L609.854 1338.84 Q607.4 1340.5 604.646 1341.34 Q601.914 1342.17 598.859 1342.17 Q591.011 1342.17 586.498 1337.38 Q581.984 1332.56 581.984 1324.25 Q581.984 1315.92 586.498 1311.13 Q591.011 1306.31 598.859 1306.31 Q601.96 1306.31 604.692 1307.15 Q607.447 1307.96 609.854 1309.6 Z" fill="#000000" fill-rule="evenodd" fill-opacity="1" /><path clip-path="url(#clip310)" d="M 0 0 M624.368 1318.56 Q620.942 1318.56 618.951 1321.24 Q616.96 1323.9 616.96 1328.56 Q616.96 1333.21 618.928 1335.9 Q620.919 1338.56 624.368 1338.56 Q627.77 1338.56 629.761 1335.87 Q631.752 1333.19 631.752 1328.56 Q631.752 1323.95 629.761 1321.27 Q627.77 1318.56 624.368 1318.56 M624.368 1314.95 Q629.923 1314.95 633.095 1318.56 Q636.266 1322.17 636.266 1328.56 Q636.266 1334.92 633.095 1338.56 Q629.923 1342.17 624.368 1342.17 Q618.789 1342.17 615.618 1338.56 Q612.47 1334.92 612.47 1328.56 Q612.47 1322.17 615.618 1318.56 Q618.789 1314.95 624.368 1314.95 Z" fill="#000000" fill-rule="evenodd" fill-opacity="1" /><path clip-path="url(#clip310)" d="M 0 0 M662.284 1325.85 L662.284 1341.5 L658.025 1341.5 L658.025 1325.99 Q658.025 1322.31 656.59 1320.48 Q655.155 1318.65 652.284 1318.65 Q648.835 1318.65 646.844 1320.85 Q644.854 1323.05 644.854 1326.84 L644.854 1341.5 L640.571 1341.5 L640.571 1315.57 L644.854 1315.57 L644.854 1319.6 Q646.381 1317.26 648.442 1316.1 Q650.525 1314.95 653.233 1314.95 Q657.701 1314.95 659.993 1317.72 Q662.284 1320.48 662.284 1325.85 Z" fill="#000000" fill-rule="evenodd" fill-opacity="1" /><path clip-path="url(#clip310)" d="M 0 0 M683.279 1316.34 L683.279 1320.36 Q681.474 1319.44 679.529 1318.97 Q677.585 1318.51 675.502 1318.51 Q672.33 1318.51 670.733 1319.48 Q669.159 1320.46 669.159 1322.4 Q669.159 1323.88 670.293 1324.74 Q671.428 1325.57 674.854 1326.34 L676.312 1326.66 Q680.849 1327.63 682.747 1329.41 Q684.668 1331.17 684.668 1334.34 Q684.668 1337.96 681.798 1340.06 Q678.951 1342.17 673.951 1342.17 Q671.867 1342.17 669.599 1341.75 Q667.354 1341.36 664.854 1340.55 L664.854 1336.15 Q667.215 1337.38 669.506 1338 Q671.798 1338.6 674.043 1338.6 Q677.053 1338.6 678.673 1337.59 Q680.293 1336.54 680.293 1334.67 Q680.293 1332.93 679.113 1332.01 Q677.955 1331.08 673.997 1330.22 L672.516 1329.88 Q668.557 1329.04 666.798 1327.33 Q665.039 1325.59 665.039 1322.59 Q665.039 1318.93 667.631 1316.94 Q670.224 1314.95 674.992 1314.95 Q677.354 1314.95 679.437 1315.29 Q681.52 1315.64 683.279 1316.34 Z" fill="#000000" fill-rule="evenodd" fill-opacity="1" /><path clip-path="url(#clip310)" d="M 0 0 M688.696 1331.27 L688.696 1315.57 L692.955 1315.57 L692.955 1331.1 Q692.955 1334.78 694.39 1336.64 Q695.826 1338.46 698.696 1338.46 Q702.145 1338.46 704.136 1336.27 Q706.15 1334.07 706.15 1330.27 L706.15 1315.57 L710.409 1315.57 L710.409 1341.5 L706.15 1341.5 L706.15 1337.52 Q704.599 1339.88 702.539 1341.03 Q700.502 1342.17 697.793 1342.17 Q693.326 1342.17 691.011 1339.39 Q688.696 1336.61 688.696 1331.27 M699.414 1314.95 L699.414 1314.95 Z" fill="#000000" fill-rule="evenodd" fill-opacity="1" /><path clip-path="url(#clip310)" d="M 0 0 M714.876 1305.48 L719.136 1305.48 L719.136 1341.5 L714.876 1341.5 L714.876 1305.48 Z" fill="#000000" fill-rule="evenodd" fill-opacity="1" /><path clip-path="url(#clip310)" d="M 0 0 M727.816 1308.21 L727.816 1315.57 L736.589 1315.57 L736.589 1318.88 L727.816 1318.88 L727.816 1332.96 Q727.816 1336.13 728.673 1337.03 Q729.552 1337.93 732.214 1337.93 L736.589 1337.93 L736.589 1341.5 L732.214 1341.5 Q727.284 1341.5 725.409 1339.67 Q723.534 1337.82 723.534 1332.96 L723.534 1318.88 L720.409 1318.88 L720.409 1315.57 L723.534 1315.57 L723.534 1308.21 L727.816 1308.21 Z" fill="#000000" fill-rule="evenodd" fill-opacity="1" /><path clip-path="url(#clip310)" d="M 0 0 M752.839 1328.46 Q747.677 1328.46 745.687 1329.65 Q743.696 1330.83 743.696 1333.67 Q743.696 1335.94 745.177 1337.28 Q746.682 1338.6 749.251 1338.6 Q752.793 1338.6 754.923 1336.1 Q757.075 1333.58 757.075 1329.41 L757.075 1328.46 L752.839 1328.46 M761.335 1326.71 L761.335 1341.5 L757.075 1341.5 L757.075 1337.56 Q755.617 1339.92 753.441 1341.06 Q751.265 1342.17 748.117 1342.17 Q744.136 1342.17 741.774 1339.95 Q739.437 1337.7 739.437 1333.95 Q739.437 1329.58 742.353 1327.35 Q745.293 1325.13 751.103 1325.13 L757.075 1325.13 L757.075 1324.71 Q757.075 1321.78 755.131 1320.18 Q753.21 1318.56 749.714 1318.56 Q747.492 1318.56 745.386 1319.09 Q743.279 1319.62 741.335 1320.69 L741.335 1316.75 Q743.673 1315.85 745.872 1315.41 Q748.071 1314.95 750.154 1314.95 Q755.779 1314.95 758.557 1317.86 Q761.335 1320.78 761.335 1326.71 Z" fill="#000000" fill-rule="evenodd" fill-opacity="1" /><path clip-path="url(#clip310)" d="M 0 0 M787.353 1325.85 L787.353 1341.5 L783.094 1341.5 L783.094 1325.99 Q783.094 1322.31 781.659 1320.48 Q780.223 1318.65 777.353 1318.65 Q773.904 1318.65 771.913 1320.85 Q769.922 1323.05 769.922 1326.84 L769.922 1341.5 L765.64 1341.5 L765.64 1315.57 L769.922 1315.57 L769.922 1319.6 Q771.45 1317.26 773.51 1316.1 Q775.594 1314.95 778.302 1314.95 Q782.77 1314.95 785.061 1317.72 Q787.353 1320.48 787.353 1325.85 Z" fill="#000000" fill-rule="evenodd" fill-opacity="1" /><path clip-path="url(#clip310)" d="M 0 0 M796.033 1308.21 L796.033 1315.57 L804.807 1315.57 L804.807 1318.88 L796.033 1318.88 L796.033 1332.96 Q796.033 1336.13 796.89 1337.03 Q797.77 1337.93 800.432 1337.93 L804.807 1337.93 L804.807 1341.5 L800.432 1341.5 Q795.501 1341.5 793.626 1339.67 Q791.751 1337.82 791.751 1332.96 L791.751 1318.88 L788.626 1318.88 L788.626 1315.57 L791.751 1315.57 L791.751 1308.21 L796.033 1308.21 Z" fill="#000000" fill-rule="evenodd" fill-opacity="1" /><path clip-path="url(#clip310)" d="M 0 0 M828.973 1349.37 L828.973 1352.68 L804.344 1352.68 L804.344 1349.37 L828.973 1349.37 Z" fill="#000000" fill-rule="evenodd" fill-opacity="1" /><path clip-path="url(#clip310)" d="M 0 0 M850.015 1325.29 Q851.519 1325.8 852.931 1327.47 Q854.366 1329.14 855.802 1332.05 L860.547 1341.5 L855.524 1341.5 L851.103 1332.63 Q849.39 1329.16 847.769 1328.03 Q846.172 1326.89 843.394 1326.89 L838.302 1326.89 L838.302 1341.5 L833.626 1341.5 L833.626 1306.94 L844.181 1306.94 Q850.107 1306.94 853.024 1309.41 Q855.941 1311.89 855.941 1316.89 Q855.941 1320.15 854.413 1322.31 Q852.908 1324.46 850.015 1325.29 M838.302 1310.78 L838.302 1323.05 L844.181 1323.05 Q847.561 1323.05 849.274 1321.5 Q851.01 1319.92 851.01 1316.89 Q851.01 1313.86 849.274 1312.33 Q847.561 1310.78 844.181 1310.78 L838.302 1310.78 Z" fill="#000000" fill-rule="evenodd" fill-opacity="1" /><path clip-path="url(#clip310)" d="M 0 0 M885.061 1327.47 L885.061 1329.55 L865.478 1329.55 Q865.755 1333.95 868.116 1336.27 Q870.501 1338.56 874.737 1338.56 Q877.19 1338.56 879.482 1337.96 Q881.797 1337.35 884.065 1336.15 L884.065 1340.18 Q881.774 1341.15 879.366 1341.66 Q876.959 1342.17 874.482 1342.17 Q868.278 1342.17 864.644 1338.56 Q861.033 1334.95 861.033 1328.79 Q861.033 1322.42 864.459 1318.7 Q867.908 1314.95 873.741 1314.95 Q878.973 1314.95 882.005 1318.33 Q885.061 1321.68 885.061 1327.47 M880.802 1326.22 Q880.755 1322.72 878.834 1320.64 Q876.936 1318.56 873.788 1318.56 Q870.223 1318.56 868.07 1320.57 Q865.94 1322.59 865.616 1326.24 L880.802 1326.22 Z" fill="#000000" fill-rule="evenodd" fill-opacity="1" /><path clip-path="url(#clip310)" d="M 0 0 M892.075 1328.56 Q892.075 1333.26 893.996 1335.94 Q895.94 1338.6 899.32 1338.6 Q902.7 1338.6 904.644 1335.94 Q906.588 1333.26 906.588 1328.56 Q906.588 1323.86 904.644 1321.2 Q902.7 1318.51 899.32 1318.51 Q895.94 1318.51 893.996 1321.2 Q892.075 1323.86 892.075 1328.56 M906.588 1337.61 Q905.246 1339.92 903.186 1341.06 Q901.149 1342.17 898.278 1342.17 Q893.579 1342.17 890.616 1338.42 Q887.676 1334.67 887.676 1328.56 Q887.676 1322.45 890.616 1318.7 Q893.579 1314.95 898.278 1314.95 Q901.149 1314.95 903.186 1316.08 Q905.246 1317.19 906.588 1319.51 L906.588 1315.57 L910.848 1315.57 L910.848 1351.36 L906.588 1351.36 L906.588 1337.61 Z" fill="#000000" fill-rule="evenodd" fill-opacity="1" /><path clip-path="url(#clip310)" d="M 0 0 M914.875 1331.27 L914.875 1315.57 L919.135 1315.57 L919.135 1331.1 Q919.135 1334.78 920.57 1336.64 Q922.005 1338.46 924.875 1338.46 Q928.324 1338.46 930.315 1336.27 Q932.329 1334.07 932.329 1330.27 L932.329 1315.57 L936.588 1315.57 L936.588 1341.5 L932.329 1341.5 L932.329 1337.52 Q930.778 1339.88 928.718 1341.03 Q926.681 1342.17 923.973 1342.17 Q919.505 1342.17 917.19 1339.39 Q914.875 1336.61 914.875 1331.27 M925.593 1314.95 L925.593 1314.95 Z" fill="#000000" fill-rule="evenodd" fill-opacity="1" /><path clip-path="url(#clip310)" d="M 0 0 M963.232 1327.47 L963.232 1329.55 L943.648 1329.55 Q943.926 1333.95 946.287 1336.27 Q948.672 1338.56 952.908 1338.56 Q955.361 1338.56 957.653 1337.96 Q959.968 1337.35 962.236 1336.15 L962.236 1340.18 Q959.945 1341.15 957.537 1341.66 Q955.13 1342.17 952.653 1342.17 Q946.449 1342.17 942.815 1338.56 Q939.204 1334.95 939.204 1328.79 Q939.204 1322.42 942.63 1318.7 Q946.079 1314.95 951.912 1314.95 Q957.144 1314.95 960.176 1318.33 Q963.232 1321.68 963.232 1327.47 M958.972 1326.22 Q958.926 1322.72 957.005 1320.64 Q955.107 1318.56 951.959 1318.56 Q948.394 1318.56 946.241 1320.57 Q944.111 1322.59 943.787 1326.24 L958.972 1326.22 Z" fill="#000000" fill-rule="evenodd" fill-opacity="1" /><path clip-path="url(#clip310)" d="M 0 0 M984.227 1316.34 L984.227 1320.36 Q982.421 1319.44 980.477 1318.97 Q978.532 1318.51 976.449 1318.51 Q973.278 1318.51 971.681 1319.48 Q970.107 1320.46 970.107 1322.4 Q970.107 1323.88 971.241 1324.74 Q972.375 1325.57 975.801 1326.34 L977.259 1326.66 Q981.796 1327.63 983.694 1329.41 Q985.616 1331.17 985.616 1334.34 Q985.616 1337.96 982.745 1340.06 Q979.898 1342.17 974.898 1342.17 Q972.815 1342.17 970.546 1341.75 Q968.301 1341.36 965.801 1340.55 L965.801 1336.15 Q968.162 1337.38 970.454 1338 Q972.745 1338.6 974.991 1338.6 Q978 1338.6 979.62 1337.59 Q981.241 1336.54 981.241 1334.67 Q981.241 1332.93 980.06 1332.01 Q978.903 1331.08 974.945 1330.22 L973.463 1329.88 Q969.505 1329.04 967.746 1327.33 Q965.986 1325.59 965.986 1322.59 Q965.986 1318.93 968.579 1316.94 Q971.171 1314.95 975.94 1314.95 Q978.301 1314.95 980.384 1315.29 Q982.468 1315.64 984.227 1316.34 Z" fill="#000000" fill-rule="evenodd" fill-opacity="1" /><path clip-path="url(#clip310)" d="M 0 0 M994.296 1308.21 L994.296 1315.57 L1003.07 1315.57 L1003.07 1318.88 L994.296 1318.88 L994.296 1332.96 Q994.296 1336.13 995.153 1337.03 Q996.032 1337.93 998.694 1337.93 L1003.07 1337.93 L1003.07 1341.5 L998.694 1341.5 Q993.764 1341.5 991.889 1339.67 Q990.014 1337.82 990.014 1332.96 L990.014 1318.88 L986.889 1318.88 L986.889 1315.57 L990.014 1315.57 L990.014 1308.21 L994.296 1308.21 Z" fill="#000000" fill-rule="evenodd" fill-opacity="1" /><path clip-path="url(#clip310)" d="M 0 0 M1024.06 1316.34 L1024.06 1320.36 Q1022.26 1319.44 1020.31 1318.97 Q1018.37 1318.51 1016.29 1318.51 Q1013.12 1318.51 1011.52 1319.48 Q1009.94 1320.46 1009.94 1322.4 Q1009.94 1323.88 1011.08 1324.74 Q1012.21 1325.57 1015.64 1326.34 L1017.1 1326.66 Q1021.63 1327.63 1023.53 1329.41 Q1025.45 1331.17 1025.45 1334.34 Q1025.45 1337.96 1022.58 1340.06 Q1019.74 1342.17 1014.74 1342.17 Q1012.65 1342.17 1010.38 1341.75 Q1008.14 1341.36 1005.64 1340.55 L1005.64 1336.15 Q1008 1337.38 1010.29 1338 Q1012.58 1338.6 1014.83 1338.6 Q1017.84 1338.6 1019.46 1337.59 Q1021.08 1336.54 1021.08 1334.67 Q1021.08 1332.93 1019.9 1332.01 Q1018.74 1331.08 1014.78 1330.22 L1013.3 1329.88 Q1009.34 1329.04 1007.58 1327.33 Q1005.82 1325.59 1005.82 1322.59 Q1005.82 1318.93 1008.42 1316.94 Q1011.01 1314.95 1015.78 1314.95 Q1018.14 1314.95 1020.22 1315.29 Q1022.31 1315.64 1024.06 1316.34 Z" fill="#000000" fill-rule="evenodd" fill-opacity="1" /><path clip-path="url(#clip310)" d="M 0 0 M1035.54 948.272 L1035.54 975.147 L1041.19 975.147 Q1048.34 975.147 1051.65 971.906 Q1054.99 968.665 1054.99 961.674 Q1054.99 954.73 1051.65 951.512 Q1048.34 948.272 1041.19 948.272 L1035.54 948.272 M1030.87 944.429 L1040.47 944.429 Q1050.52 944.429 1055.22 948.619 Q1059.92 952.786 1059.92 961.674 Q1059.92 970.61 1055.2 974.799 Q1050.47 978.989 1040.47 978.989 L1030.87 978.989 L1030.87 944.429 Z" fill="#000000" fill-rule="evenodd" fill-opacity="1" /><path clip-path="url(#clip310)" d="M 0 0 M1086.56 964.961 L1086.56 967.045 L1066.98 967.045 Q1067.26 971.443 1069.62 973.758 Q1072 976.049 1076.24 976.049 Q1078.69 976.049 1080.98 975.448 Q1083.3 974.846 1085.57 973.642 L1085.57 977.67 Q1083.27 978.642 1080.87 979.151 Q1078.46 979.66 1075.98 979.66 Q1069.78 979.66 1066.14 976.049 Q1062.53 972.438 1062.53 966.281 Q1062.53 959.915 1065.96 956.188 Q1069.41 952.438 1075.24 952.438 Q1080.47 952.438 1083.51 955.818 Q1086.56 959.174 1086.56 964.961 M1082.3 963.711 Q1082.26 960.216 1080.33 958.133 Q1078.44 956.049 1075.29 956.049 Q1071.72 956.049 1069.57 958.063 Q1067.44 960.077 1067.12 963.735 L1082.3 963.711 Z" fill="#000000" fill-rule="evenodd" fill-opacity="1" /><path clip-path="url(#clip310)" d="M 0 0 M1107.56 953.827 L1107.56 957.855 Q1105.75 956.929 1103.81 956.466 Q1101.86 956.003 1099.78 956.003 Q1096.61 956.003 1095.01 956.975 Q1093.44 957.948 1093.44 959.892 Q1093.44 961.374 1094.57 962.23 Q1095.7 963.063 1099.13 963.827 L1100.59 964.151 Q1105.13 965.123 1107.02 966.906 Q1108.95 968.665 1108.95 971.836 Q1108.95 975.448 1106.07 977.554 Q1103.23 979.66 1098.23 979.66 Q1096.14 979.66 1093.88 979.244 Q1091.63 978.85 1089.13 978.04 L1089.13 973.642 Q1091.49 974.869 1093.78 975.494 Q1096.07 976.096 1098.32 976.096 Q1101.33 976.096 1102.95 975.077 Q1104.57 974.035 1104.57 972.16 Q1104.57 970.424 1103.39 969.498 Q1102.23 968.573 1098.27 967.716 L1096.79 967.369 Q1092.83 966.536 1091.07 964.823 Q1089.32 963.086 1089.32 960.077 Q1089.32 956.42 1091.91 954.429 Q1094.5 952.438 1099.27 952.438 Q1101.63 952.438 1103.71 952.786 Q1105.8 953.133 1107.56 953.827 Z" fill="#000000" fill-rule="evenodd" fill-opacity="1" /><path clip-path="url(#clip310)" d="M 0 0 M1113.41 953.063 L1117.67 953.063 L1117.67 978.989 L1113.41 978.989 L1113.41 953.063 M1113.41 942.971 L1117.67 942.971 L1117.67 948.364 L1113.41 948.364 L1113.41 942.971 Z" fill="#000000" fill-rule="evenodd" fill-opacity="1" /><path clip-path="url(#clip310)" d="M 0 0 M1139.2 965.725 Q1139.2 961.096 1137.28 958.549 Q1135.38 956.003 1131.93 956.003 Q1128.51 956.003 1126.58 958.549 Q1124.69 961.096 1124.69 965.725 Q1124.69 970.332 1126.58 972.878 Q1128.51 975.424 1131.93 975.424 Q1135.38 975.424 1137.28 972.878 Q1139.2 970.332 1139.2 965.725 M1143.46 975.772 Q1143.46 982.392 1140.52 985.609 Q1137.58 988.85 1131.51 988.85 Q1129.27 988.85 1127.28 988.503 Q1125.29 988.179 1123.41 987.484 L1123.41 983.341 Q1125.29 984.36 1127.12 984.846 Q1128.94 985.332 1130.84 985.332 Q1135.03 985.332 1137.12 983.133 Q1139.2 980.957 1139.2 976.535 L1139.2 974.429 Q1137.88 976.721 1135.82 977.855 Q1133.76 978.989 1130.89 978.989 Q1126.12 978.989 1123.2 975.355 Q1120.29 971.721 1120.29 965.725 Q1120.29 959.707 1123.2 956.073 Q1126.12 952.438 1130.89 952.438 Q1133.76 952.438 1135.82 953.573 Q1137.88 954.707 1139.2 956.999 L1139.2 953.063 L1143.46 953.063 L1143.46 975.772 Z" fill="#000000" fill-rule="evenodd" fill-opacity="1" /><path clip-path="url(#clip310)" d="M 0 0 M1169.48 963.341 L1169.48 978.989 L1165.22 978.989 L1165.22 963.48 Q1165.22 959.799 1163.78 957.971 Q1162.35 956.142 1159.48 956.142 Q1156.03 956.142 1154.04 958.341 Q1152.05 960.54 1152.05 964.336 L1152.05 978.989 L1147.76 978.989 L1147.76 953.063 L1152.05 953.063 L1152.05 957.091 Q1153.57 954.753 1155.63 953.596 Q1157.72 952.438 1160.43 952.438 Q1164.89 952.438 1167.19 955.216 Q1169.48 957.971 1169.48 963.341 Z" fill="#000000" fill-rule="evenodd" fill-opacity="1" /><path clip-path="url(#clip310)" d="M 0 0 M1193.64 986.859 L1193.64 990.17 L1169.01 990.17 L1169.01 986.859 L1193.64 986.859 Z" fill="#000000" fill-rule="evenodd" fill-opacity="1" /><path clip-path="url(#clip310)" d="M 0 0 M1214.69 962.786 Q1216.19 963.295 1217.6 964.961 Q1219.04 966.628 1220.47 969.545 L1225.22 978.989 L1220.19 978.989 L1215.77 970.123 Q1214.06 966.651 1212.44 965.517 Q1210.84 964.383 1208.06 964.383 L1202.97 964.383 L1202.97 978.989 L1198.3 978.989 L1198.3 944.429 L1208.85 944.429 Q1214.78 944.429 1217.69 946.906 Q1220.61 949.383 1220.61 954.383 Q1220.61 957.647 1219.08 959.799 Q1217.58 961.952 1214.69 962.786 M1202.97 948.272 L1202.97 960.54 L1208.85 960.54 Q1212.23 960.54 1213.94 958.989 Q1215.68 957.415 1215.68 954.383 Q1215.68 951.35 1213.94 949.823 Q1212.23 948.272 1208.85 948.272 L1202.97 948.272 Z" fill="#000000" fill-rule="evenodd" fill-opacity="1" /><path clip-path="url(#clip310)" d="M 0 0 M1249.73 964.961 L1249.73 967.045 L1230.15 967.045 Q1230.43 971.443 1232.79 973.758 Q1235.17 976.049 1239.41 976.049 Q1241.86 976.049 1244.15 975.448 Q1246.47 974.846 1248.74 973.642 L1248.74 977.67 Q1246.44 978.642 1244.04 979.151 Q1241.63 979.66 1239.15 979.66 Q1232.95 979.66 1229.31 976.049 Q1225.7 972.438 1225.7 966.281 Q1225.7 959.915 1229.13 956.188 Q1232.58 952.438 1238.41 952.438 Q1243.64 952.438 1246.68 955.818 Q1249.73 959.174 1249.73 964.961 M1245.47 963.711 Q1245.43 960.216 1243.5 958.133 Q1241.61 956.049 1238.46 956.049 Q1234.89 956.049 1232.74 958.063 Q1230.61 960.077 1230.29 963.735 L1245.47 963.711 Z" fill="#000000" fill-rule="evenodd" fill-opacity="1" /><path clip-path="url(#clip310)" d="M 0 0 M1265.98 965.957 Q1260.82 965.957 1258.83 967.137 Q1256.84 968.318 1256.84 971.165 Q1256.84 973.434 1258.32 974.776 Q1259.82 976.096 1262.39 976.096 Q1265.93 976.096 1268.06 973.596 Q1270.22 971.073 1270.22 966.906 L1270.22 965.957 L1265.98 965.957 M1274.48 964.198 L1274.48 978.989 L1270.22 978.989 L1270.22 975.054 Q1268.76 977.415 1266.58 978.549 Q1264.41 979.66 1261.26 979.66 Q1257.28 979.66 1254.92 977.438 Q1252.58 975.193 1252.58 971.443 Q1252.58 967.068 1255.5 964.846 Q1258.43 962.624 1264.25 962.624 L1270.22 962.624 L1270.22 962.207 Q1270.22 959.267 1268.27 957.67 Q1266.35 956.049 1262.86 956.049 Q1260.63 956.049 1258.53 956.582 Q1256.42 957.114 1254.48 958.179 L1254.48 954.244 Q1256.81 953.341 1259.01 952.901 Q1261.21 952.438 1263.3 952.438 Q1268.92 952.438 1271.7 955.355 Q1274.48 958.272 1274.48 964.198 Z" fill="#000000" fill-rule="evenodd" fill-opacity="1" /><path clip-path="url(#clip310)" d="M 0 0 M1295.47 953.827 L1295.47 957.855 Q1293.67 956.929 1291.72 956.466 Q1289.78 956.003 1287.69 956.003 Q1284.52 956.003 1282.93 956.975 Q1281.35 957.948 1281.35 959.892 Q1281.35 961.374 1282.49 962.23 Q1283.62 963.063 1287.05 963.827 L1288.5 964.151 Q1293.04 965.123 1294.94 966.906 Q1296.86 968.665 1296.86 971.836 Q1296.86 975.448 1293.99 977.554 Q1291.14 979.66 1286.14 979.66 Q1284.06 979.66 1281.79 979.244 Q1279.55 978.85 1277.05 978.04 L1277.05 973.642 Q1279.41 974.869 1281.7 975.494 Q1283.99 976.096 1286.24 976.096 Q1289.24 976.096 1290.87 975.077 Q1292.49 974.035 1292.49 972.16 Q1292.49 970.424 1291.31 969.498 Q1290.15 968.573 1286.19 967.716 L1284.71 967.369 Q1280.75 966.536 1278.99 964.823 Q1277.23 963.086 1277.23 960.077 Q1277.23 956.42 1279.82 954.429 Q1282.42 952.438 1287.18 952.438 Q1289.55 952.438 1291.63 952.786 Q1293.71 953.133 1295.47 953.827 Z" fill="#000000" fill-rule="evenodd" fill-opacity="1" /><path clip-path="url(#clip310)" d="M 0 0 M1311.37 956.049 Q1307.95 956.049 1305.96 958.735 Q1303.97 961.397 1303.97 966.049 Q1303.97 970.702 1305.93 973.387 Q1307.93 976.049 1311.37 976.049 Q1314.78 976.049 1316.77 973.364 Q1318.76 970.679 1318.76 966.049 Q1318.76 961.443 1316.77 958.758 Q1314.78 956.049 1311.37 956.049 M1311.37 952.438 Q1316.93 952.438 1320.1 956.049 Q1323.27 959.661 1323.27 966.049 Q1323.27 972.415 1320.1 976.049 Q1316.93 979.66 1311.37 979.66 Q1305.8 979.66 1302.62 976.049 Q1299.48 972.415 1299.48 966.049 Q1299.48 959.661 1302.62 956.049 Q1305.8 952.438 1311.37 952.438 Z" fill="#000000" fill-rule="evenodd" fill-opacity="1" /><path clip-path="url(#clip310)" d="M 0 0 M1349.29 963.341 L1349.29 978.989 L1345.03 978.989 L1345.03 963.48 Q1345.03 959.799 1343.6 957.971 Q1342.16 956.142 1339.29 956.142 Q1335.84 956.142 1333.85 958.341 Q1331.86 960.54 1331.86 964.336 L1331.86 978.989 L1327.58 978.989 L1327.58 953.063 L1331.86 953.063 L1331.86 957.091 Q1333.39 954.753 1335.45 953.596 Q1337.53 952.438 1340.24 952.438 Q1344.71 952.438 1347 955.216 Q1349.29 957.971 1349.29 963.341 Z" fill="#000000" fill-rule="evenodd" fill-opacity="1" /><path clip-path="url(#clip310)" d="M 0 0 M1353.76 953.063 L1358.02 953.063 L1358.02 978.989 L1353.76 978.989 L1353.76 953.063 M1353.76 942.971 L1358.02 942.971 L1358.02 948.364 L1353.76 948.364 L1353.76 942.971 Z" fill="#000000" fill-rule="evenodd" fill-opacity="1" /><path clip-path="url(#clip310)" d="M 0 0 M1384.04 963.341 L1384.04 978.989 L1379.78 978.989 L1379.78 963.48 Q1379.78 959.799 1378.34 957.971 Q1376.91 956.142 1374.04 956.142 Q1370.59 956.142 1368.6 958.341 Q1366.61 960.54 1366.61 964.336 L1366.61 978.989 L1362.32 978.989 L1362.32 953.063 L1366.61 953.063 L1366.61 957.091 Q1368.13 954.753 1370.19 953.596 Q1372.28 952.438 1374.99 952.438 Q1379.45 952.438 1381.74 955.216 Q1384.04 957.971 1384.04 963.341 Z" fill="#000000" fill-rule="evenodd" fill-opacity="1" /><path clip-path="url(#clip310)" d="M 0 0 M1405.56 965.725 Q1405.56 961.096 1403.64 958.549 Q1401.74 956.003 1398.3 956.003 Q1394.87 956.003 1392.95 958.549 Q1391.05 961.096 1391.05 965.725 Q1391.05 970.332 1392.95 972.878 Q1394.87 975.424 1398.3 975.424 Q1401.74 975.424 1403.64 972.878 Q1405.56 970.332 1405.56 965.725 M1409.82 975.772 Q1409.82 982.392 1406.88 985.609 Q1403.94 988.85 1397.88 988.85 Q1395.63 988.85 1393.64 988.503 Q1391.65 988.179 1389.78 987.484 L1389.78 983.341 Q1391.65 984.36 1393.48 984.846 Q1395.31 985.332 1397.21 985.332 Q1401.4 985.332 1403.48 983.133 Q1405.56 980.957 1405.56 976.535 L1405.56 974.429 Q1404.24 976.721 1402.18 977.855 Q1400.12 978.989 1397.25 978.989 Q1392.49 978.989 1389.57 975.355 Q1386.65 971.721 1386.65 965.725 Q1386.65 959.707 1389.57 956.073 Q1392.49 952.438 1397.25 952.438 Q1400.12 952.438 1402.18 953.573 Q1404.24 954.707 1405.56 956.999 L1405.56 953.063 L1409.82 953.063 L1409.82 975.772 Z" fill="#000000" fill-rule="evenodd" fill-opacity="1" /><path clip-path="url(#clip310)" d="M 0 0 M230.673 801.894 L230.673 806.825 Q228.312 804.626 225.626 803.538 Q222.964 802.45 219.955 802.45 Q214.029 802.45 210.881 806.084 Q207.733 809.695 207.733 816.547 Q207.733 823.376 210.881 827.01 Q214.029 830.621 219.955 830.621 Q222.964 830.621 225.626 829.533 Q228.312 828.445 230.673 826.246 L230.673 831.13 Q228.219 832.797 225.464 833.63 Q222.733 834.464 219.677 834.464 Q211.83 834.464 207.316 829.672 Q202.802 824.857 202.802 816.547 Q202.802 808.214 207.316 803.422 Q211.83 798.607 219.677 798.607 Q222.779 798.607 225.511 799.441 Q228.265 800.251 230.673 801.894 Z" fill="#000000" fill-rule="evenodd" fill-opacity="1" /><path clip-path="url(#clip310)" d="M 0 0 M245.186 810.853 Q241.761 810.853 239.77 813.538 Q237.779 816.2 237.779 820.852 Q237.779 825.505 239.747 828.19 Q241.737 830.852 245.186 830.852 Q248.589 830.852 250.58 828.167 Q252.571 825.482 252.571 820.852 Q252.571 816.246 250.58 813.561 Q248.589 810.853 245.186 810.853 M245.186 807.241 Q250.742 807.241 253.913 810.853 Q257.085 814.464 257.085 820.852 Q257.085 827.218 253.913 830.852 Q250.742 834.464 245.186 834.464 Q239.608 834.464 236.437 830.852 Q233.288 827.218 233.288 820.852 Q233.288 814.464 236.437 810.853 Q239.608 807.241 245.186 807.241 Z" fill="#000000" fill-rule="evenodd" fill-opacity="1" /><path clip-path="url(#clip310)" d="M 0 0 M261.552 797.774 L265.811 797.774 L265.811 833.792 L261.552 833.792 L261.552 797.774 Z" fill="#000000" fill-rule="evenodd" fill-opacity="1" /><path clip-path="url(#clip310)" d="M 0 0 M270.279 797.774 L274.538 797.774 L274.538 833.792 L270.279 833.792 L270.279 797.774 Z" fill="#000000" fill-rule="evenodd" fill-opacity="1" /><path clip-path="url(#clip310)" d="M 0 0 M290.788 820.76 Q285.626 820.76 283.635 821.94 Q281.645 823.121 281.645 825.968 Q281.645 828.237 283.126 829.579 Q284.631 830.899 287.2 830.899 Q290.742 830.899 292.871 828.399 Q295.024 825.876 295.024 821.709 L295.024 820.76 L290.788 820.76 M299.283 819.001 L299.283 833.792 L295.024 833.792 L295.024 829.857 Q293.566 832.218 291.39 833.352 Q289.214 834.464 286.066 834.464 Q282.084 834.464 279.723 832.241 Q277.385 829.996 277.385 826.246 Q277.385 821.871 280.302 819.649 Q283.242 817.427 289.052 817.427 L295.024 817.427 L295.024 817.01 Q295.024 814.07 293.08 812.473 Q291.158 810.853 287.663 810.853 Q285.441 810.853 283.334 811.385 Q281.228 811.917 279.283 812.982 L279.283 809.047 Q281.621 808.144 283.821 807.704 Q286.02 807.241 288.103 807.241 Q293.728 807.241 296.506 810.158 Q299.283 813.075 299.283 819.001 Z" fill="#000000" fill-rule="evenodd" fill-opacity="1" /><path clip-path="url(#clip310)" d="M 0 0 M322.362 820.852 Q322.362 816.153 320.418 813.491 Q318.496 810.806 315.117 810.806 Q311.737 810.806 309.793 813.491 Q307.871 816.153 307.871 820.852 Q307.871 825.552 309.793 828.237 Q311.737 830.899 315.117 830.899 Q318.496 830.899 320.418 828.237 Q322.362 825.552 322.362 820.852 M307.871 811.802 Q309.214 809.487 311.251 808.376 Q313.311 807.241 316.158 807.241 Q320.88 807.241 323.82 810.991 Q326.783 814.741 326.783 820.852 Q326.783 826.964 323.82 830.714 Q320.88 834.464 316.158 834.464 Q313.311 834.464 311.251 833.352 Q309.214 832.218 307.871 829.903 L307.871 833.792 L303.589 833.792 L303.589 797.774 L307.871 797.774 L307.871 811.802 Z" fill="#000000" fill-rule="evenodd" fill-opacity="1" /><path clip-path="url(#clip310)" d="M 0 0 M341.297 810.853 Q337.871 810.853 335.88 813.538 Q333.89 816.2 333.89 820.852 Q333.89 825.505 335.857 828.19 Q337.848 830.852 341.297 830.852 Q344.7 830.852 346.691 828.167 Q348.681 825.482 348.681 820.852 Q348.681 816.246 346.691 813.561 Q344.7 810.853 341.297 810.853 M341.297 807.241 Q346.853 807.241 350.024 810.853 Q353.195 814.464 353.195 820.852 Q353.195 827.218 350.024 830.852 Q346.853 834.464 341.297 834.464 Q335.718 834.464 332.547 830.852 Q329.399 827.218 329.399 820.852 Q329.399 814.464 332.547 810.853 Q335.718 807.241 341.297 807.241 Z" fill="#000000" fill-rule="evenodd" fill-opacity="1" /><path clip-path="url(#clip310)" d="M 0 0 M372.686 811.848 Q371.968 811.431 371.112 811.246 Q370.278 811.038 369.26 811.038 Q365.649 811.038 363.704 813.399 Q361.783 815.737 361.783 820.135 L361.783 833.792 L357.501 833.792 L357.501 807.866 L361.783 807.866 L361.783 811.894 Q363.126 809.533 365.278 808.399 Q367.431 807.241 370.51 807.241 Q370.95 807.241 371.482 807.311 Q372.014 807.357 372.663 807.473 L372.686 811.848 Z" fill="#000000" fill-rule="evenodd" fill-opacity="1" /><path clip-path="url(#clip310)" d="M 0 0 M388.936 820.76 Q383.774 820.76 381.783 821.94 Q379.792 823.121 379.792 825.968 Q379.792 828.237 381.274 829.579 Q382.778 830.899 385.348 830.899 Q388.889 830.899 391.019 828.399 Q393.172 825.876 393.172 821.709 L393.172 820.76 L388.936 820.76 M397.431 819.001 L397.431 833.792 L393.172 833.792 L393.172 829.857 Q391.713 832.218 389.538 833.352 Q387.362 834.464 384.213 834.464 Q380.232 834.464 377.871 832.241 Q375.533 829.996 375.533 826.246 Q375.533 821.871 378.45 819.649 Q381.389 817.427 387.2 817.427 L393.172 817.427 L393.172 817.01 Q393.172 814.07 391.227 812.473 Q389.306 810.853 385.811 810.853 Q383.588 810.853 381.482 811.385 Q379.376 811.917 377.431 812.982 L377.431 809.047 Q379.769 808.144 381.968 807.704 Q384.167 807.241 386.251 807.241 Q391.875 807.241 394.653 810.158 Q397.431 813.075 397.431 819.001 Z" fill="#000000" fill-rule="evenodd" fill-opacity="1" /><path clip-path="url(#clip310)" d="M 0 0 M406.112 800.505 L406.112 807.866 L414.885 807.866 L414.885 811.177 L406.112 811.177 L406.112 825.251 Q406.112 828.422 406.968 829.325 Q407.848 830.227 410.51 830.227 L414.885 830.227 L414.885 833.792 L410.51 833.792 Q405.579 833.792 403.704 831.964 Q401.829 830.112 401.829 825.251 L401.829 811.177 L398.704 811.177 L398.704 807.866 L401.829 807.866 L401.829 800.505 L406.112 800.505 Z" fill="#000000" fill-rule="evenodd" fill-opacity="1" /><path clip-path="url(#clip310)" d="M 0 0 M419.352 807.866 L423.611 807.866 L423.611 833.792 L419.352 833.792 L419.352 807.866 M419.352 797.774 L423.611 797.774 L423.611 803.167 L419.352 803.167 L419.352 797.774 Z" fill="#000000" fill-rule="evenodd" fill-opacity="1" /><path clip-path="url(#clip310)" d="M 0 0 M438.125 810.853 Q434.699 810.853 432.709 813.538 Q430.718 816.2 430.718 820.852 Q430.718 825.505 432.685 828.19 Q434.676 830.852 438.125 830.852 Q441.528 830.852 443.519 828.167 Q445.509 825.482 445.509 820.852 Q445.509 816.246 443.519 813.561 Q441.528 810.853 438.125 810.853 M438.125 807.241 Q443.681 807.241 446.852 810.853 Q450.023 814.464 450.023 820.852 Q450.023 827.218 446.852 830.852 Q443.681 834.464 438.125 834.464 Q432.547 834.464 429.375 830.852 Q426.227 827.218 426.227 820.852 Q426.227 814.464 429.375 810.853 Q432.547 807.241 438.125 807.241 Z" fill="#000000" fill-rule="evenodd" fill-opacity="1" /><path clip-path="url(#clip310)" d="M 0 0 M476.042 818.144 L476.042 833.792 L471.782 833.792 L471.782 818.283 Q471.782 814.603 470.347 812.774 Q468.912 810.945 466.042 810.945 Q462.593 810.945 460.602 813.144 Q458.611 815.343 458.611 819.14 L458.611 833.792 L454.329 833.792 L454.329 807.866 L458.611 807.866 L458.611 811.894 Q460.139 809.556 462.199 808.399 Q464.283 807.241 466.991 807.241 Q471.458 807.241 473.75 810.019 Q476.042 812.774 476.042 818.144 Z" fill="#000000" fill-rule="evenodd" fill-opacity="1" /><path clip-path="url(#clip312)" d="M921.006 966.126 L921.006 998.126 L953.006 998.126 L953.006 966.126 L921.006 966.126 Z" fill="#800080" fill-rule="evenodd" fill-opacity="1" stroke="none"/>
<polyline clip-path="url(#clip312)" style="stroke:#800080; stroke-width:4; stroke-opacity:1; fill:none" stroke-dasharray="16, 10" points="
  863.56,1044.19 1010.45,1044.19 
  "/>
<polyline clip-path="url(#clip312)" style="stroke:#800080; stroke-width:4; stroke-opacity:1; fill:none" stroke-dasharray="16, 10" points="
  863.56,920.066 1010.45,920.066 
  "/>
<polyline clip-path="url(#clip312)" style="stroke:#800080; stroke-width:4; stroke-opacity:1; fill:none" stroke-dasharray="16, 10" points="
  863.56,1044.19 863.56,920.066 
  "/>
<polyline clip-path="url(#clip312)" style="stroke:#800080; stroke-width:4; stroke-opacity:1; fill:none" stroke-dasharray="16, 10" points="
  1010.45,1044.19 1010.45,920.066 
  "/>
</svg>
